<svg width="28" height="31" viewBox="0 0 28 31" fill="none" xmlns="http://www.w3.org/2000/svg">
<g filter="url(#filter0_d_3891_27558)">
<path d="M23.1084 21.5512L14.2959 2.17968C14.2701 2.12276 14.2284 2.07449 14.1758 2.04063C14.1233 2.00677 14.0621 1.98877 13.9996 1.98877C13.9371 1.98877 13.876 2.00677 13.8234 2.04063C13.7709 2.07449 13.7292 2.12276 13.7034 2.17968L4.89088 21.5512C4.85508 21.6298 4.85195 21.7194 4.88219 21.8003C4.91243 21.8811 4.97356 21.9467 5.05213 21.9825C5.1307 22.0183 5.22028 22.0214 5.30115 21.9912C5.38203 21.9609 5.44758 21.8998 5.48338 21.8212L14.0015 3.1003L22.5159 21.8203C22.5517 21.8989 22.6172 21.96 22.6981 21.9902C22.7382 22.0052 22.7808 22.0122 22.8235 22.0107C22.8662 22.0092 22.9082 21.9993 22.9471 21.9816C22.986 21.9638 23.0211 21.9386 23.0502 21.9073C23.0794 21.8761 23.1021 21.8394 23.1171 21.7993C23.132 21.7593 23.139 21.7167 23.1375 21.674C23.136 21.6312 23.1261 21.5892 23.1084 21.5503V21.5512Z" fill="black"/>
<path d="M15.5446 13.6922H12.4583C12.372 13.6922 12.2893 13.7265 12.2283 13.7875C12.1673 13.8485 12.133 13.9312 12.133 14.0175V21.6853C12.133 21.7717 12.1673 21.8546 12.2284 21.9157C12.2895 21.9768 12.3724 22.0111 12.4588 22.0111C12.5452 22.0111 12.6281 21.9768 12.6891 21.9157C12.7502 21.8546 12.7846 21.7717 12.7846 21.6853V14.3437H15.2221V21.6862C15.2221 21.7726 15.2564 21.8555 15.3175 21.9166C15.3786 21.9777 15.4614 22.012 15.5478 22.012C15.6343 22.012 15.7171 21.9777 15.7782 21.9166C15.8393 21.8555 15.8736 21.7726 15.8736 21.6862V14.0184C15.8738 13.9753 15.8653 13.9326 15.8488 13.8928C15.8323 13.853 15.808 13.8168 15.7774 13.7865C15.7467 13.7561 15.7104 13.7321 15.6704 13.7159C15.6305 13.6998 15.5877 13.6917 15.5446 13.6922ZM11.3643 14.0006H10.5571C10.4949 14.0003 10.434 14.0178 10.3815 14.051C10.329 14.0843 10.2871 14.1318 10.2608 14.1881L7.54301 20.1562C7.52039 20.2058 7.5106 20.2603 7.51451 20.3146C7.51843 20.369 7.53594 20.4215 7.56543 20.4673C7.59492 20.5131 7.63545 20.5508 7.68329 20.5769C7.73114 20.603 7.78477 20.6166 7.83926 20.6166H11.2733C11.3587 20.6163 11.4406 20.5826 11.5014 20.5227C11.5623 20.4627 11.5972 20.3813 11.5986 20.2959L11.6924 14.3278C11.6931 14.2847 11.6853 14.2419 11.6693 14.2018C11.6534 14.1617 11.6296 14.1253 11.5994 14.0945C11.5693 14.0637 11.5333 14.0392 11.4935 14.0224C11.4538 14.0057 11.4111 13.997 11.368 13.9969L11.3643 14.0006ZM10.9518 19.9687H8.34551L10.7652 14.6494H11.0333L10.9518 19.9687ZM17.7439 14.1881C17.7176 14.1318 17.6757 14.0843 17.6232 14.051C17.5707 14.0178 17.5098 14.0003 17.4477 14.0006H16.6396C16.5964 14.0007 16.5538 14.0094 16.5141 14.0262C16.4743 14.0429 16.4383 14.0674 16.4081 14.0982C16.378 14.129 16.3542 14.1655 16.3382 14.2056C16.3223 14.2456 16.3144 14.2884 16.3152 14.3316L16.4089 20.2997C16.4104 20.3851 16.4453 20.4665 16.5061 20.5264C16.567 20.5864 16.6489 20.6201 16.7343 20.6203H20.1674C20.2219 20.6203 20.2755 20.6067 20.3233 20.5806C20.3712 20.5545 20.4117 20.5169 20.4412 20.471C20.4707 20.4252 20.4882 20.3727 20.4921 20.3184C20.496 20.264 20.4862 20.2096 20.4636 20.16L17.7439 14.1881ZM17.0511 19.9687L16.9705 14.6503H17.2386L19.6574 19.9687H17.0511ZM11.2424 13.0922H16.7596C16.8141 13.0922 16.8677 13.0786 16.9155 13.0525C16.9634 13.0264 17.0039 12.9887 17.0334 12.9429C17.0629 12.8971 17.0804 12.8446 17.0843 12.7903C17.0882 12.7359 17.0784 12.6814 17.0558 12.6319L14.2977 6.56249C14.2719 6.50557 14.2302 6.4573 14.1777 6.42344C14.1251 6.38959 14.0639 6.37158 14.0014 6.37158C13.9389 6.37158 13.8778 6.38959 13.8252 6.42344C13.7727 6.4573 13.731 6.50557 13.7052 6.56249L10.9461 12.6281C10.9235 12.6777 10.9137 12.7322 10.9176 12.7865C10.9216 12.8409 10.9391 12.8934 10.9686 12.9392C10.998 12.985 11.0386 13.0227 11.0864 13.0488C11.1343 13.0748 11.1879 13.0885 11.2424 13.0884V13.0922ZM14.0014 7.48687L16.2514 12.4406H11.7514L14.0014 7.48687Z" fill="black"/>
</g>
<defs>
<filter id="filter0_d_3891_27558" x="-2" y="0" width="32" height="32" filterUnits="userSpaceOnUse" color-interpolation-filters="sRGB">
<feFlood flood-opacity="0" result="BackgroundImageFix"/>
<feColorMatrix in="SourceAlpha" type="matrix" values="0 0 0 0 0 0 0 0 0 0 0 0 0 0 0 0 0 0 127 0" result="hardAlpha"/>
<feOffset dy="4"/>
<feGaussianBlur stdDeviation="2"/>
<feComposite in2="hardAlpha" operator="out"/>
<feColorMatrix type="matrix" values="0 0 0 0 0 0 0 0 0 0 0 0 0 0 0 0 0 0 0.25 0"/>
<feBlend mode="normal" in2="BackgroundImageFix" result="effect1_dropShadow_3891_27558"/>
<feBlend mode="normal" in="SourceGraphic" in2="effect1_dropShadow_3891_27558" result="shape"/>
</filter>
</defs>
</svg>
