<svg width="24" height="24" viewBox="0 0 24 24" fill="none" xmlns="http://www.w3.org/2000/svg">
<path d="M22.2857 0H12C11.5453 0 11.1093 0.180612 10.7878 0.502103C10.4663 0.823593 10.2857 1.25963 10.2857 1.71429V10.2857H1.71429C1.25963 10.2857 0.823593 10.4663 0.502103 10.7878C0.180612 11.1093 0 11.5453 0 12V24H24V1.71429C24 1.25963 23.8194 0.823593 23.4979 0.502103C23.1764 0.180612 22.7404 0 22.2857 0ZM6 22.2857V16.2857H9.42857V22.2857H6ZM22.2857 22.2857H11.1429V15.4286C11.1429 15.2012 11.0526 14.9832 10.8918 14.8225C10.7311 14.6617 10.513 14.5714 10.2857 14.5714H5.14286C4.91553 14.5714 4.69751 14.6617 4.53677 14.8225C4.37602 14.9832 4.28571 15.2012 4.28571 15.4286V22.2857H1.71429V12H12V1.71429H22.2857V22.2857Z" fill="white"/>
<path d="M13.7143 5.14286H15.4286V6.85714H13.7143V5.14286ZM18.8571 5.14286H20.5714V6.85714H18.8571V5.14286ZM13.7143 10.2857H15.4286V12H13.7143V10.2857ZM18.8571 10.2857H20.5714V12H18.8571V10.2857ZM13.7143 15.4286H15.4286V17.1429H13.7143V15.4286ZM18.8571 15.4286H20.5714V17.1429H18.8571V15.4286Z" fill="white"/>
</svg>
