<svg width="25" height="24" viewBox="0 0 25 24" fill="none" xmlns="http://www.w3.org/2000/svg">
<path d="M18.8369 0.787476H19.3613C19.8619 0.787476 20.2988 1.19507 20.2988 1.72498V3.93787C20.2987 3.9706 20.2811 4.01907 20.2373 4.06287C20.1933 4.10686 20.1441 4.12537 20.1113 4.12537C20.0152 4.12516 19.924 4.04699 19.9238 3.93787V1.72498C19.9238 1.38445 19.64 1.16248 19.3613 1.16248H18.8369C18.4964 1.16248 18.2744 1.44632 18.2744 1.72498V1.87537C18.2742 1.97151 18.1961 2.06276 18.0869 2.06287C18.017 2.06287 17.973 2.03977 17.9473 2.01404C17.9217 1.98833 17.8995 1.94485 17.8994 1.87537V1.72498C17.8994 1.22444 18.307 0.787476 18.8369 0.787476ZM20.2988 8.09705L14.3945 2.19275L14.2617 2.05896L14.1289 2.19275L8.31641 8.04236L8.26172 8.09802V10.6879C8.26151 10.7841 8.18354 10.8754 8.07422 10.8754C8.00433 10.8754 7.9603 10.8523 7.93457 10.8265C7.90901 10.8008 7.8868 10.7573 7.88672 10.6879V8.02478C7.88674 7.99053 7.89199 7.96995 7.89844 7.95544L7.94434 7.8949L13.9434 1.85681L13.9443 1.85779C14.1336 1.66851 14.3898 1.66851 14.5791 1.85779L20.6162 7.8949C20.6424 7.92112 20.6553 7.94016 20.6621 7.95544C20.6686 7.96995 20.6738 7.99053 20.6738 8.02478V12.8246C20.6738 12.8574 20.6563 12.9066 20.6123 12.9506C20.5683 12.9946 20.5191 13.0121 20.4863 13.0121C20.3901 13.0119 20.2988 12.9339 20.2988 12.8246V8.09705Z" fill="white" stroke="white" stroke-width="0.375"/>
<path d="M7.54004 12.3447C8.96528 11.4183 10.8217 11.5934 12.1113 12.7754L12.1123 12.7773C12.5197 13.144 12.977 13.3125 13.4385 13.3125H15.6133C16.447 13.3126 17.1502 14.0159 17.1504 14.8496V14.8877C17.1503 15.2536 17.0177 15.5899 16.8135 15.8623H16.8125L16.8066 15.8711C16.776 15.9169 16.7322 15.9375 16.6631 15.9375C16.6429 15.9375 16.6142 15.926 16.5439 15.8916C16.5208 15.87 16.4979 15.833 16.4932 15.7842C16.4882 15.7315 16.5043 15.6862 16.5332 15.6572C16.7285 15.4618 16.8134 15.183 16.8135 14.8877V14.8496C16.8133 14.1791 16.2741 13.6875 15.6504 13.6875H13.4756C12.8893 13.6875 12.3712 13.4834 11.8779 13.0254C10.7313 11.958 9.02726 11.7943 7.75293 12.627C6.87754 13.1598 6.18258 13.737 5.67676 14.3984L5.67578 14.4004C5.65608 14.4265 5.61218 14.4541 5.55078 14.4629C5.48919 14.4717 5.4393 14.4572 5.41309 14.4375C5.38687 14.4178 5.35939 14.3741 5.35059 14.3125C5.34618 14.2817 5.34755 14.2539 5.35254 14.2305L5.37598 14.1748C5.8834 13.5233 6.6131 12.9013 7.53418 12.3486L7.54004 12.3447ZM12.876 9.1123H15.6133C16.2255 9.11243 16.7754 9.63237 16.7754 10.2754V12.2246C16.7754 12.2574 16.7569 12.3066 16.7129 12.3506C16.669 12.3943 16.6206 12.4121 16.5879 12.4121C16.4916 12.412 16.4004 12.334 16.4004 12.2246V10.2754C16.4004 9.82698 16.0092 9.48743 15.6133 9.4873H12.876C12.4275 9.4873 12.0879 9.87944 12.0879 10.2754V11.0996C12.0879 11.196 12.0099 11.2871 11.9004 11.2871C11.8308 11.2871 11.7875 11.2649 11.7617 11.2393C11.736 11.2135 11.7129 11.1695 11.7129 11.0996V10.2754C11.7129 9.66306 12.2329 9.1123 12.876 9.1123ZM14.3008 0.1875C14.7517 0.18755 15.1987 0.345752 15.5283 0.632812L15.6621 0.763672L15.668 0.770508L21.7803 6.88281C22.157 7.25955 22.1569 7.85271 21.7803 8.22949C21.5882 8.42159 21.3728 8.5126 21.126 8.5127C20.8684 8.5127 20.6266 8.41523 20.4824 8.24219L20.4766 8.23535L20.4707 8.22949L14.3955 2.19238L14.2627 2.06055L14.1309 2.19238L8.09277 8.22949C7.75799 8.56428 7.12725 8.57366 6.74512 8.22852C6.36931 7.85169 6.36866 7.25829 6.74512 6.88184L12.8955 0.770508C13.2723 0.393741 13.7872 0.1875 14.3008 0.1875ZM15.4131 1.03418C14.8157 0.394073 13.7563 0.392807 13.1562 1.0293L7.00586 7.1416V7.14258C6.78264 7.3658 6.78264 7.7465 7.00586 7.96973C7.22908 8.19294 7.60979 8.19295 7.83301 7.96973L13.9453 1.85742C14.0222 1.78058 14.1619 1.72475 14.2627 1.72461C14.3634 1.72461 14.5031 1.78063 14.5801 1.85742L20.6934 7.96973C20.9166 8.19294 21.2973 8.19295 21.5205 7.96973C21.7436 7.74649 21.7437 7.36577 21.5205 7.14258L15.4121 1.03418H15.4131Z" fill="white" stroke="white" stroke-width="0.375"/>
<path d="M9.6125 20.0625C9.4625 20.0625 9.3125 19.95 9.275 19.8C9.2 19.6125 9.3125 19.3875 9.5 19.35C9.6875 19.3125 9.8375 19.3125 9.9875 19.3125L15.2375 19.1625C16.4375 19.125 17.5625 18.825 18.65 18.3C20.45 17.4 22.0625 16.35 23.45 15.1875C23.5625 15.1125 23.6 15 23.6 14.8875C23.6 14.775 23.5625 14.7 23.4875 14.625C22.925 14.1375 22.1375 14.0625 21.4625 14.4375C20.3375 15.15 18.875 15.7125 16.925 16.1625C16.5875 16.5375 16.1375 16.725 15.65 16.725H13.025C12.8375 16.725 12.65 16.575 12.65 16.35C12.65 16.125 12.8 15.975 13.025 15.975H15.65C15.9875 15.975 16.25 15.8625 16.4375 15.6C16.475 15.525 16.55 15.4875 16.625 15.45C18.575 15 20 14.4375 21.0875 13.7625C22.025 13.2375 23.1875 13.35 23.975 14.025C24.2375 14.2125 24.35 14.5125 24.35 14.85C24.35 15.1875 24.2 15.525 23.9 15.75C22.475 16.9125 20.7875 18 18.95 18.9375C17.7875 19.5375 16.5125 19.8375 15.2375 19.875L9.9875 20.025H9.725C9.6875 20.0625 9.65 20.0625 9.6125 20.0625ZM6.275 24C6.1625 24 6.05 23.9625 5.975 23.85L0.7625 16.9125C0.6875 16.8375 0.6875 16.725 0.6875 16.65C0.6875 16.5375 0.7625 16.4625 0.8375 16.425L2.6 15.1125C2.9 14.8875 3.275 14.775 3.65 14.775C4.2125 14.775 4.7 15.0375 5.0375 15.45L8.6 20.2125C8.8625 20.55 9.0125 21 8.9375 21.45C8.8625 21.9 8.6375 22.35 8.2625 22.65L6.5 23.925C6.425 23.9625 6.35 24 6.275 24ZM1.5875 16.7625L6.35 23.1L7.8125 22.0125C8.0375 21.8625 8.1875 21.6 8.225 21.3375C8.2625 21.075 8.1875 20.85 8.0375 20.625L4.475 15.8625C4.175 15.45 3.5 15.3375 3.0875 15.675L1.5875 16.7625Z" fill="white"/>
</svg>
