<svg width="24" height="24" viewBox="0 0 24 24" fill="none" xmlns="http://www.w3.org/2000/svg">
<path d="M19.6125 4.3126C19.425 4.3126 19.2375 4.1626 19.2375 3.9376V1.7251C19.2375 1.5001 19.05 1.3501 18.8625 1.3501H18.3375C18.1125 1.3501 17.9625 1.5376 17.9625 1.7251V1.8751C17.9625 2.0626 17.8125 2.2501 17.5875 2.2501C17.3625 2.2501 17.2125 2.1001 17.2125 1.8751V1.7251C17.2125 1.1251 17.7 0.600098 18.3375 0.600098H18.8625C19.4625 0.600098 19.9875 1.0876 19.9875 1.7251V3.9376C19.9875 4.1251 19.8 4.3126 19.6125 4.3126ZM19.9875 13.2001C19.8 13.2001 19.6125 13.0501 19.6125 12.8251V8.1751L13.7625 2.3251L7.95001 8.1751V10.6876C7.95001 10.8751 7.80001 11.0626 7.57501 11.0626C7.35001 11.0626 7.20001 10.9126 7.20001 10.6876V8.0251C7.20001 7.9126 7.23751 7.8376 7.31251 7.7626L13.3125 1.7251C13.575 1.4626 13.95 1.4626 14.2125 1.7251L20.25 7.7626C20.325 7.8376 20.3625 7.9126 20.3625 8.0251V12.8251C20.3625 13.0126 20.175 13.2001 19.9875 13.2001Z" fill="black"/>
<path d="M20.625 8.7C20.325 8.7 20.025 8.5875 19.8375 8.3625L13.7625 2.325L7.72499 8.3625C7.31249 8.775 6.56249 8.775 6.11249 8.3625C5.66249 7.9125 5.66249 7.2 6.11249 6.75L12.2625 0.6375C12.675 0.225 13.2375 0 13.8 0C14.3625 0 14.925 0.225 15.3 0.6375L21.4125 6.75C21.8625 7.2 21.8625 7.9125 21.4125 8.3625C21.1875 8.5875 20.925 8.7 20.625 8.7ZM13.7625 1.5375C13.9125 1.5375 14.1 1.6125 14.2125 1.725L20.325 7.8375C20.475 7.9875 20.7375 7.9875 20.8875 7.8375C21.0375 7.6875 21.0375 7.425 20.8875 7.275L14.775 1.1625C14.25 0.6 13.3125 0.6 12.7875 1.1625L6.63749 7.275C6.48749 7.425 6.48749 7.6875 6.63749 7.8375C6.78749 7.9875 7.04999 7.9875 7.19999 7.8375L13.3125 1.725C13.425 1.6125 13.6125 1.5375 13.7625 1.5375ZM16.0875 12.6C15.9 12.6 15.7125 12.45 15.7125 12.225V10.275C15.7125 9.9375 15.4125 9.675 15.1125 9.675H12.375C12.0375 9.675 11.775 9.975 11.775 10.275V11.1C11.775 11.2875 11.625 11.475 11.4 11.475C11.175 11.475 11.025 11.325 11.025 11.1V10.275C11.025 9.5625 11.625 8.925 12.375 8.925H15.1125C15.825 8.925 16.4625 9.525 16.4625 10.275V12.225C16.4625 12.4125 16.275 12.6 16.0875 12.6ZM16.1625 16.125C16.0875 16.125 16.0125 16.0875 15.9375 16.05C15.7875 15.9375 15.75 15.675 15.9 15.525C16.05 15.375 16.125 15.15 16.125 14.8875V14.85C16.125 14.2875 15.675 13.875 15.15 13.875H12.975C12.3375 13.875 11.775 13.65 11.25 13.1625C10.1625 12.15 8.54999 12 7.34999 12.7875C6.48749 13.3125 5.81249 13.875 5.32499 14.5125C5.21249 14.6625 4.94999 14.7 4.79999 14.5875C4.64999 14.475 4.61249 14.2125 4.72499 14.0625C5.24999 13.3875 5.99999 12.75 6.93749 12.1875C8.43749 11.2125 10.3875 11.4 11.7375 12.6375C12.1125 12.975 12.525 13.125 12.9375 13.125H15.1125C16.05 13.125 16.8375 13.9125 16.8375 14.85V14.8875C16.8375 15.3 16.6875 15.675 16.4625 15.975C16.3875 16.0875 16.275 16.125 16.1625 16.125Z" fill="black"/>
<path d="M9.1125 20.0626C8.9625 20.0626 8.8125 19.9501 8.775 19.8001C8.7 19.6126 8.8125 19.3876 9 19.3501C9.1875 19.3126 9.3375 19.3126 9.4875 19.3126L14.7375 19.1626C15.9375 19.1251 17.0625 18.8251 18.15 18.3001C19.95 17.4001 21.5625 16.3501 22.95 15.1876C23.0625 15.1126 23.1 15.0001 23.1 14.8876C23.1 14.7751 23.0625 14.7001 22.9875 14.6251C22.425 14.1376 21.6375 14.0626 20.9625 14.4376C19.8375 15.1501 18.375 15.7126 16.425 16.1626C16.0875 16.5376 15.6375 16.7251 15.15 16.7251H12.525C12.3375 16.7251 12.15 16.5751 12.15 16.3501C12.15 16.1251 12.3 15.9751 12.525 15.9751H15.15C15.4875 15.9751 15.75 15.8626 15.9375 15.6001C15.975 15.5251 16.05 15.4876 16.125 15.4501C18.075 15.0001 19.5 14.4376 20.5875 13.7626C21.525 13.2376 22.6875 13.3501 23.475 14.0251C23.7375 14.2126 23.85 14.5126 23.85 14.8501C23.85 15.1876 23.7 15.5251 23.4 15.7501C21.975 16.9126 20.2875 18.0001 18.45 18.9376C17.2875 19.5376 16.0125 19.8376 14.7375 19.8751L9.4875 20.0251H9.225C9.1875 20.0626 9.15 20.0626 9.1125 20.0626ZM5.775 24.0001C5.6625 24.0001 5.55 23.9626 5.475 23.8501L0.2625 16.9126C0.1875 16.8376 0.1875 16.7251 0.1875 16.6501C0.1875 16.5376 0.2625 16.4626 0.3375 16.4251L2.1 15.1126C2.4 14.8876 2.775 14.7751 3.15 14.7751C3.7125 14.7751 4.2 15.0376 4.5375 15.4501L8.1 20.2126C8.3625 20.5501 8.5125 21.0001 8.4375 21.4501C8.3625 21.9001 8.1375 22.3501 7.7625 22.6501L6 23.9251C5.925 23.9626 5.85 24.0001 5.775 24.0001ZM1.0875 16.7626L5.85 23.1001L7.3125 22.0126C7.5375 21.8626 7.6875 21.6001 7.725 21.3376C7.7625 21.0751 7.6875 20.8501 7.5375 20.6251L3.975 15.8626C3.675 15.4501 3 15.3376 2.5875 15.6751L1.0875 16.7626Z" fill="black"/>
</svg>
