<svg width="100" height="100" viewBox="0 0 100 100" fill="none" xmlns="http://www.w3.org/2000/svg">
<path d="M50 100C77.6142 100 100 77.6144 100 50.0002C100 22.3859 77.6142 0 50 0C22.3858 0 0 22.3859 0 50.0002C0 77.6144 22.3858 100 50 100Z" fill="#02836F"/>
<path d="M48.6165 99.9306C49.0773 99.9602 49.5384 99.9833 49.9998 100C51.1797 100 52.3591 99.9585 53.536 99.8751C55.1987 99.757 56.8544 99.5558 58.4971 99.2723C60.1393 98.9889 61.7663 98.6237 63.3721 98.1779C64.9779 97.7322 66.5604 97.2065 68.1137 96.6029C69.6682 95.9979 71.1914 95.3156 72.6776 94.5584C74.1626 93.8024 75.6088 92.9727 77.011 92.0723C78.416 91.1723 79.7751 90.2026 81.0832 89.1667C82.3893 88.13 83.6427 87.0287 84.8387 85.8667C86.0351 84.7058 87.1726 83.4858 88.2471 82.2112C89.3192 80.9364 90.3269 79.6088 91.2665 78.2334C92.2093 76.8567 93.0827 75.4336 93.8832 73.9695C94.6809 72.5066 95.4049 71.0047 96.0526 69.4695C96.7017 67.9352 97.2737 66.3693 97.7665 64.7778C98.26 63.1847 98.6735 61.5679 99.0054 59.9334C99.3377 58.2988 99.588 56.6486 99.7554 54.989C99.7695 54.7242 99.7816 54.4594 99.7915 54.1945L72.8471 27.2501C71.71 26.0875 70.3523 25.1634 68.8537 24.5319C67.3551 23.9004 65.7455 23.5741 64.1193 23.5723C62.4637 23.5754 60.8261 23.9154 59.306 24.5715C57.786 25.2277 56.4154 26.1863 55.2776 27.389L50.7915 23.8529C50.5661 23.6842 50.295 23.5873 50.0137 23.5751V23.5862H49.8804C49.6096 23.6081 49.3501 23.7042 49.1304 23.864L42.1665 29.0834H29.1776V38.8167L24.4637 42.3473C24.1254 42.4776 23.8515 42.7351 23.7005 43.0647C23.5495 43.3943 23.5333 43.7698 23.6554 44.1112C23.6315 44.2178 23.6204 44.3269 23.6221 44.4362V74.9084C23.6191 74.9751 23.621 75.042 23.6276 75.1084C23.637 75.2008 23.6556 75.292 23.6832 75.3806C23.6969 75.423 23.7127 75.4647 23.7304 75.5056C23.7479 75.5463 23.7674 75.5862 23.7887 75.6251C23.9002 75.828 24.0606 75.9999 24.2554 76.1251C24.2573 76.1251 24.2591 76.1251 24.261 76.1251C24.2978 76.15 24.3358 76.1732 24.3748 76.1945C24.3767 76.1945 24.3785 76.1945 24.3804 76.1945C24.5037 76.2573 24.6357 76.3013 24.7721 76.3251C24.7739 76.3251 24.7758 76.3251 24.7776 76.3251C24.8207 76.3364 24.8642 76.3457 24.9082 76.3528C24.91 76.3529 24.9119 76.3529 24.9137 76.3528C24.9174 76.3529 24.9211 76.3529 24.9248 76.3528C24.9526 76.3537 24.9804 76.3537 25.0082 76.3528C25.0221 76.3531 25.036 76.3531 25.0498 76.3528H25.0637L25.0748 76.3612H25.0471L48.6165 99.9306Z" fill="#02564A"/>
<path d="M50.0165 23.5943C49.9721 23.5943 49.9248 23.5943 49.8804 23.5999C49.6086 23.6169 49.3478 23.7135 49.1304 23.8777L42.1665 29.0943H29.1776V38.8277L24.4637 42.361C24.1254 42.4913 23.8515 42.7488 23.7005 43.0784C23.5495 43.408 23.5333 43.7835 23.6554 44.1249C23.6315 44.2315 23.6204 44.3406 23.6221 44.4499V74.9138C23.6186 74.9842 23.6204 75.0548 23.6276 75.1249C23.6372 75.2163 23.6558 75.3066 23.6832 75.3943C23.6969 75.4367 23.7127 75.4785 23.7304 75.5193C23.7304 75.5212 23.7304 75.523 23.7304 75.5249C23.7479 75.5656 23.7674 75.6055 23.7887 75.6443C23.7887 75.6462 23.7887 75.648 23.7887 75.6499C23.9002 75.8528 24.0606 76.0247 24.2554 76.1499C24.2573 76.1499 24.2591 76.1499 24.261 76.1499C24.2978 76.1748 24.3358 76.198 24.3748 76.2193C24.3767 76.2193 24.3785 76.2193 24.3804 76.2193C24.5037 76.2821 24.6357 76.3261 24.7721 76.3499C24.7739 76.3499 24.7758 76.3499 24.7776 76.3499C24.8209 76.3575 24.8644 76.3631 24.9082 76.3666C24.91 76.3666 24.9119 76.3666 24.9137 76.3666C24.9174 76.3666 24.9211 76.3666 24.9248 76.3666C24.9526 76.3692 24.9804 76.3711 25.0082 76.3721C25.0221 76.3723 25.036 76.3723 25.0498 76.3721H74.7165C74.9408 76.4246 75.1746 76.4206 75.397 76.3602C75.6193 76.2999 75.8231 76.1852 75.9901 76.0265C76.1571 75.8678 76.2819 75.6701 76.3535 75.4511C76.425 75.2321 76.4409 74.9988 76.3998 74.7721V44.4499C76.4029 44.2624 76.3679 44.0763 76.2971 43.9027C76.3346 43.702 76.3275 43.4955 76.2762 43.2979C76.2248 43.1003 76.1305 42.9164 76 42.7594C75.8695 42.6024 75.706 42.476 75.5212 42.3894C75.3363 42.3028 75.1346 42.258 74.9304 42.2582C74.8056 42.2582 74.6813 42.275 74.561 42.3082C75.7553 40.3876 76.392 38.1727 76.3998 35.911C76.3998 29.1277 70.8832 23.5943 64.1165 23.5943C60.6415 23.5943 57.5137 25.0666 55.2776 27.4027L50.7915 23.8721C50.5664 23.7028 50.2952 23.6059 50.0137 23.5943H50.0165ZM64.1165 26.3721C66.711 26.3721 69.0554 27.4138 70.7693 29.0943H70.7471C70.7748 29.1221 70.8165 29.1332 70.8443 29.161C72.5637 30.8832 73.6221 33.2666 73.6221 35.911C73.6221 38.5499 72.5637 40.9388 70.8443 42.661C70.0554 43.4499 69.0943 44.0582 68.0665 44.5304V44.5638C66.8286 45.138 65.4811 45.4375 64.1165 45.4416C62.8662 45.4423 61.628 45.1961 60.4731 44.717C59.3182 44.2379 58.2692 43.5355 57.3865 42.6499C56.5038 41.7644 55.8047 40.7132 55.3294 39.5567C54.854 38.4003 54.6118 37.1613 54.6165 35.911C54.6114 34.6602 54.8533 33.4206 55.3285 32.2636C55.8036 31.1065 56.5025 30.0546 57.3852 29.1683C58.2679 28.282 59.3169 27.5788 60.472 27.099C61.6271 26.6191 62.8657 26.3721 64.1165 26.3721ZM49.9665 26.7193L53.1415 29.0943H46.7998L49.9665 26.7193ZM68.3276 31.7166C68.2802 31.7178 68.233 31.7215 68.186 31.7277C68.1402 31.7346 68.0947 31.7439 68.0498 31.7554C68.0058 31.7653 67.9622 31.7774 67.9193 31.7916C67.875 31.806 67.8314 31.8227 67.7887 31.8416C67.769 31.8513 67.7496 31.8615 67.7304 31.8721C67.5964 31.9408 67.4744 32.0309 67.3693 32.1388L62.786 36.7443L60.8415 34.8749C60.7083 34.7441 60.5501 34.6416 60.3764 34.5733C60.2027 34.5051 60.017 34.4725 59.8304 34.4777C59.6291 34.4813 59.431 34.5287 59.2498 34.6166C59.2216 34.6304 59.1938 34.6452 59.1665 34.661C59.1263 34.6849 59.0874 34.7109 59.0498 34.7388C59.0114 34.7656 58.9743 34.7943 58.9387 34.8249C58.9057 34.8557 58.8742 34.8882 58.8443 34.9221C58.813 34.9549 58.7833 34.9892 58.7554 35.0249C58.7265 35.0633 58.6996 35.1031 58.6748 35.1443C58.6516 35.1831 58.6303 35.2229 58.611 35.2638C58.5902 35.3063 58.5717 35.3499 58.5554 35.3943C58.5403 35.4372 58.5273 35.4808 58.5165 35.5249C58.505 35.5698 58.4957 35.6152 58.4887 35.661C58.4818 35.707 58.4771 35.7534 58.4748 35.7999C58.4725 35.8462 58.4725 35.8925 58.4748 35.9388C58.4781 35.9853 58.4836 36.0317 58.4915 36.0777C58.4985 36.1235 58.5078 36.1689 58.5193 36.2138C58.5292 36.2579 58.5412 36.3014 58.5554 36.3443C58.5735 36.3889 58.5939 36.4325 58.6165 36.4749C58.6358 36.5157 58.6572 36.5556 58.6804 36.5943C58.7036 36.6326 58.7286 36.6696 58.7554 36.7054C58.7849 36.7441 58.8164 36.7812 58.8498 36.8166C58.8704 36.8385 58.8917 36.8598 58.9137 36.8804L59.636 37.5693L61.5943 39.4471C61.7053 39.629 61.8568 39.7828 62.0368 39.8968C62.2168 40.0107 62.4207 40.0817 62.6326 40.1043C62.8445 40.1269 63.0587 40.1004 63.2587 40.0269C63.4587 39.9534 63.6391 39.8348 63.786 39.6804L68.0637 35.3777L69.3415 34.0999C69.3738 34.0663 69.4044 34.031 69.4332 33.9943C69.4637 33.9597 69.4924 33.9235 69.5193 33.886C69.5453 33.8474 69.5695 33.8076 69.5915 33.7666C69.613 33.7259 69.6325 33.6842 69.6498 33.6416C69.6687 33.5989 69.6854 33.5553 69.6998 33.511C69.7132 33.4662 69.7244 33.4208 69.7332 33.3749C69.7418 33.3308 69.7483 33.2863 69.7526 33.2416C69.7569 33.1945 69.7587 33.1472 69.7582 33.0999C69.7586 33.0545 69.7567 33.009 69.7526 32.9638C69.7485 32.9172 69.742 32.8708 69.7332 32.8249C69.7226 32.7779 69.7096 32.7316 69.6943 32.686C69.6816 32.6427 69.6667 32.6001 69.6498 32.5582C69.6307 32.5155 69.6093 32.4738 69.586 32.4332C69.5637 32.3941 69.5396 32.3561 69.5137 32.3193C69.4879 32.28 69.4601 32.242 69.4304 32.2054C69.4006 32.1706 69.3691 32.1372 69.336 32.1054C69.3032 32.0732 69.2689 32.0426 69.2332 32.0138C69.1967 31.9841 69.1586 31.9563 69.1193 31.9304C69.0788 31.9061 69.0371 31.8839 68.9943 31.8638C68.9536 31.8432 68.9118 31.8247 68.8693 31.8082C68.8265 31.7913 68.783 31.7764 68.7387 31.7638C68.6939 31.7513 68.6485 31.7411 68.6026 31.7332C68.5566 31.7253 68.5103 31.7198 68.4637 31.7166C68.4175 31.7142 68.3739 31.7142 68.3276 31.7166ZM31.9554 31.8721H52.5721C52.2659 32.7615 52.0636 33.6834 51.9693 34.6193H40.2887V37.5693H52.0082C52.136 38.5027 52.3443 39.4054 52.6693 40.261H37.511V43.2138H54.2887C55.0276 44.2054 55.9054 45.0832 56.8998 45.8166H43.0665V48.7693H56.9554V45.8666C59.0324 47.3907 61.5403 48.2146 64.1165 48.2193C64.4748 48.2193 64.811 48.1471 65.1582 48.1166L49.9637 57.6054L31.9554 46.3832V31.8721ZM29.1776 42.2999V44.6554L27.4637 43.586L29.1776 42.2999ZM73.6221 46.0999V72.411L59.1304 62.7277C58.8997 62.5666 58.6256 62.4795 58.3443 62.4777V62.4832C58.0438 62.4816 57.7509 62.5774 57.5096 62.7564C57.2682 62.9353 57.0914 63.1877 57.0056 63.4757C56.9199 63.7636 56.9298 64.0716 57.0339 64.3535C57.1381 64.6353 57.3308 64.8758 57.5832 65.0388L70.3998 73.5943H29.5943L42.4276 65.0388C42.6832 64.8741 42.8776 64.6301 42.9812 64.3443C43.0847 64.0584 43.0916 63.7465 43.0008 63.4564C42.9099 63.1662 42.7264 62.9139 42.4784 62.7381C42.2303 62.5623 41.9315 62.4728 41.6276 62.4832C41.3621 62.4921 41.1047 62.5769 40.886 62.7277L26.3998 72.3888V46.1916L29.1776 47.9221L49.2304 60.4221L49.3221 60.4804H49.3387C49.3406 60.4823 49.3424 60.4842 49.3443 60.486C49.3461 60.486 49.348 60.486 49.3498 60.486C49.3618 60.4917 49.3738 60.4973 49.386 60.5027C49.455 60.5344 49.5265 60.5604 49.5998 60.5804C49.6265 60.5877 49.6534 60.5942 49.6804 60.5999C49.6988 60.604 49.7174 60.6077 49.736 60.611C49.7387 60.611 49.7415 60.611 49.7443 60.611C49.7857 60.6184 49.8274 60.624 49.8693 60.6277C49.8748 60.6277 49.8804 60.6277 49.886 60.6277C50.0003 60.6344 50.1151 60.6269 50.2276 60.6054C50.2462 60.6021 50.2647 60.5984 50.2832 60.5943C50.374 60.5727 50.4624 60.542 50.5471 60.5027C50.562 60.4955 50.5768 60.4881 50.5915 60.4804H50.6082L50.6832 60.4332C50.6888 60.4296 50.6943 60.4258 50.6998 60.4221L70.8443 47.8388L73.6221 46.0999Z" fill="white"/>
</svg>
