<svg width="24" height="24" viewBox="0 0 24 24" fill="none" xmlns="http://www.w3.org/2000/svg">
<mask id="path-1-inside-1_6497_1846" fill="white">
<path d="M3.975 23.9235C9.225 23.9235 14.475 23.9235 19.6875 23.9235C19.9125 23.9235 20.0625 23.7706 20.0625 23.5412V11.307L20.85 12.0335C21.45 12.5687 22.35 12.5687 22.9125 12.0335C23.5875 11.4217 23.5875 10.3513 22.9125 9.70131L12.8625 0.37276C12.3 -0.124253 11.4375 -0.124253 10.875 0.37276L6.7875 4.15771V2.24612H7.425C7.65 2.24612 7.8 2.09319 7.8 1.8638C7.8 1.63441 7.65 1.48148 7.425 1.48148C5.625 1.48148 4.425 1.48148 2.625 1.48148C2.4 1.48148 2.25 1.63441 2.25 1.8638C2.25 2.09319 2.4 2.24612 2.625 2.24612H3.2625V7.40741L0.7875 9.70131C0.1125 10.313 0.1125 11.4217 0.7875 12.0335C1.35 12.5687 2.2875 12.5687 2.85 12.0335L3.6375 11.307V18.5329H2.625V17.8447C2.625 17.6153 2.475 17.4624 2.25 17.4624C2.025 17.4624 1.875 17.6153 1.875 17.8447V18.5329H0.75V17.8447C0.75 17.6153 0.6 17.4624 0.375 17.4624C0.15 17.4624 0 17.6153 0 17.8447V21.9355C0 22.1649 0.15 22.3178 0.375 22.3178C0.6 22.3178 0.75 22.1649 0.75 21.9355V21.2473H1.875V21.9355C1.875 22.1649 2.025 22.3178 2.25 22.3178C2.475 22.3178 2.625 22.1649 2.625 21.9355V21.2473H3.6V23.503C3.6 23.7324 3.7875 23.9235 3.975 23.9235ZM12.3 23.1589V15.0538H17.175V23.1589H12.3ZM3.975 2.24612H6V4.84588L3.975 6.71924V2.24612ZM2.325 11.46C2.025 11.7276 1.575 11.7276 1.275 11.46C0.9375 11.1541 0.9375 10.5806 1.275 10.2748C2.325 9.319 -2.475 13.7157 11.3625 0.946236C11.625 0.678614 12.075 0.678614 12.3375 0.946236L22.425 10.2748C22.7625 10.5806 22.7625 11.1541 22.425 11.46C22.125 11.7276 21.675 11.7276 21.375 11.46L12.1125 2.89606C11.9625 2.78136 11.7375 2.78136 11.625 2.89606C5.1375 8.86021 6.5625 7.5221 2.325 11.46ZM11.85 3.69892L19.35 10.6189V23.1589H17.925V15.0538H18.15C18.375 15.0538 18.525 14.9008 18.525 14.6714C18.525 14.4421 18.375 14.2891 18.15 14.2891C16.125 14.2891 13.35 14.2891 11.325 14.2891C11.1 14.2891 10.95 14.4421 10.95 14.6714C10.95 14.9008 11.1 15.0538 11.325 15.0538H11.55V23.1589H4.35V10.6189L11.85 3.69892ZM0.75 20.4827V19.2593H1.875V20.4827H0.75ZM2.625 20.4827V19.2593H3.6V20.4827H2.625Z"/>
<path d="M11.85 12.2246C13.3875 12.2246 14.6625 10.9247 14.6625 9.35723C14.6625 7.78972 13.3875 6.48984 11.85 6.48984C10.3125 6.48984 9.0375 7.78972 9.0375 9.35723C9.0375 10.9247 10.3125 12.2246 11.85 12.2246ZM9.825 9.73954H11.475V11.4217C10.65 11.2688 9.975 10.5806 9.825 9.73954ZM12.225 11.4217V9.73954H13.875C13.725 10.5806 13.05 11.2688 12.225 11.4217ZM13.875 8.97491H12.225V7.29271C13.05 7.44564 13.725 8.13381 13.875 8.97491ZM11.475 7.29271V8.97491H9.825C9.975 8.13381 10.65 7.44564 11.475 7.29271ZM5.55 21.0944H10.35C10.575 21.0944 10.725 20.9415 10.725 20.7121V16.3919C10.725 16.1625 10.575 16.0096 10.35 16.0096H5.55C5.325 16.0096 5.175 16.1625 5.175 16.3919V20.6738C5.175 20.9032 5.3625 21.0944 5.55 21.0944ZM5.925 18.9534H7.575V20.3297H5.925V18.9534ZM8.325 20.3297V18.9534H9.975V20.3297H8.325ZM9.975 18.1888H8.325V16.8124H9.975V18.1888ZM7.575 16.7742V18.1505H5.925V16.7742H7.575ZM13.1625 18.1123C12.9375 18.1123 12.7875 18.2652 12.7875 18.4946V19.2593C12.7875 19.4886 12.9375 19.6416 13.1625 19.6416C13.3875 19.6416 13.5375 19.4886 13.5375 19.2593V18.4946C13.5375 18.3035 13.35 18.1123 13.1625 18.1123ZM22.3125 24C22.5375 24 22.6875 23.8471 22.6875 23.6177V20.6356C23.4375 20.4444 24 19.7945 24 18.9534C24 18.227 23.4 16.0478 22.3125 16.0478C21.225 16.0478 20.625 18.227 20.625 18.9534C20.625 19.7563 21.1875 20.4444 21.9375 20.6356V23.6177C21.9375 23.8471 22.0875 24 22.3125 24ZM21.375 18.9534C21.375 18.1505 21.975 16.8124 22.3125 16.8124C22.65 16.8124 23.25 18.1888 23.25 18.9534C23.25 19.3357 23.025 19.6798 22.6875 19.8327V19.4886C22.6875 19.2593 22.5375 19.1063 22.3125 19.1063C22.0875 19.1063 21.9375 19.2593 21.9375 19.4886V19.8327C21.6 19.6798 21.375 19.3357 21.375 18.9534Z"/>
</mask>
<path d="M3.975 23.9235C9.225 23.9235 14.475 23.9235 19.6875 23.9235C19.9125 23.9235 20.0625 23.7706 20.0625 23.5412V11.307L20.85 12.0335C21.45 12.5687 22.35 12.5687 22.9125 12.0335C23.5875 11.4217 23.5875 10.3513 22.9125 9.70131L12.8625 0.37276C12.3 -0.124253 11.4375 -0.124253 10.875 0.37276L6.7875 4.15771V2.24612H7.425C7.65 2.24612 7.8 2.09319 7.8 1.8638C7.8 1.63441 7.65 1.48148 7.425 1.48148C5.625 1.48148 4.425 1.48148 2.625 1.48148C2.4 1.48148 2.25 1.63441 2.25 1.8638C2.25 2.09319 2.4 2.24612 2.625 2.24612H3.2625V7.40741L0.7875 9.70131C0.1125 10.313 0.1125 11.4217 0.7875 12.0335C1.35 12.5687 2.2875 12.5687 2.85 12.0335L3.6375 11.307V18.5329H2.625V17.8447C2.625 17.6153 2.475 17.4624 2.25 17.4624C2.025 17.4624 1.875 17.6153 1.875 17.8447V18.5329H0.75V17.8447C0.75 17.6153 0.6 17.4624 0.375 17.4624C0.15 17.4624 0 17.6153 0 17.8447V21.9355C0 22.1649 0.15 22.3178 0.375 22.3178C0.6 22.3178 0.75 22.1649 0.75 21.9355V21.2473H1.875V21.9355C1.875 22.1649 2.025 22.3178 2.25 22.3178C2.475 22.3178 2.625 22.1649 2.625 21.9355V21.2473H3.6V23.503C3.6 23.7324 3.7875 23.9235 3.975 23.9235ZM12.3 23.1589V15.0538H17.175V23.1589H12.3ZM3.975 2.24612H6V4.84588L3.975 6.71924V2.24612ZM2.325 11.46C2.025 11.7276 1.575 11.7276 1.275 11.46C0.9375 11.1541 0.9375 10.5806 1.275 10.2748C2.325 9.319 -2.475 13.7157 11.3625 0.946236C11.625 0.678614 12.075 0.678614 12.3375 0.946236L22.425 10.2748C22.7625 10.5806 22.7625 11.1541 22.425 11.46C22.125 11.7276 21.675 11.7276 21.375 11.46L12.1125 2.89606C11.9625 2.78136 11.7375 2.78136 11.625 2.89606C5.1375 8.86021 6.5625 7.5221 2.325 11.46ZM11.85 3.69892L19.35 10.6189V23.1589H17.925V15.0538H18.15C18.375 15.0538 18.525 14.9008 18.525 14.6714C18.525 14.4421 18.375 14.2891 18.15 14.2891C16.125 14.2891 13.35 14.2891 11.325 14.2891C11.1 14.2891 10.95 14.4421 10.95 14.6714C10.95 14.9008 11.1 15.0538 11.325 15.0538H11.55V23.1589H4.35V10.6189L11.85 3.69892ZM0.75 20.4827V19.2593H1.875V20.4827H0.75ZM2.625 20.4827V19.2593H3.6V20.4827H2.625Z" fill="#111111"/>
<path d="M11.85 12.2246C13.3875 12.2246 14.6625 10.9247 14.6625 9.35723C14.6625 7.78972 13.3875 6.48984 11.85 6.48984C10.3125 6.48984 9.0375 7.78972 9.0375 9.35723C9.0375 10.9247 10.3125 12.2246 11.85 12.2246ZM9.825 9.73954H11.475V11.4217C10.65 11.2688 9.975 10.5806 9.825 9.73954ZM12.225 11.4217V9.73954H13.875C13.725 10.5806 13.05 11.2688 12.225 11.4217ZM13.875 8.97491H12.225V7.29271C13.05 7.44564 13.725 8.13381 13.875 8.97491ZM11.475 7.29271V8.97491H9.825C9.975 8.13381 10.65 7.44564 11.475 7.29271ZM5.55 21.0944H10.35C10.575 21.0944 10.725 20.9415 10.725 20.7121V16.3919C10.725 16.1625 10.575 16.0096 10.35 16.0096H5.55C5.325 16.0096 5.175 16.1625 5.175 16.3919V20.6738C5.175 20.9032 5.3625 21.0944 5.55 21.0944ZM5.925 18.9534H7.575V20.3297H5.925V18.9534ZM8.325 20.3297V18.9534H9.975V20.3297H8.325ZM9.975 18.1888H8.325V16.8124H9.975V18.1888ZM7.575 16.7742V18.1505H5.925V16.7742H7.575ZM13.1625 18.1123C12.9375 18.1123 12.7875 18.2652 12.7875 18.4946V19.2593C12.7875 19.4886 12.9375 19.6416 13.1625 19.6416C13.3875 19.6416 13.5375 19.4886 13.5375 19.2593V18.4946C13.5375 18.3035 13.35 18.1123 13.1625 18.1123ZM22.3125 24C22.5375 24 22.6875 23.8471 22.6875 23.6177V20.6356C23.4375 20.4444 24 19.7945 24 18.9534C24 18.227 23.4 16.0478 22.3125 16.0478C21.225 16.0478 20.625 18.227 20.625 18.9534C20.625 19.7563 21.1875 20.4444 21.9375 20.6356V23.6177C21.9375 23.8471 22.0875 24 22.3125 24ZM21.375 18.9534C21.375 18.1505 21.975 16.8124 22.3125 16.8124C22.65 16.8124 23.25 18.1888 23.25 18.9534C23.25 19.3357 23.025 19.6798 22.6875 19.8327V19.4886C22.6875 19.2593 22.5375 19.1063 22.3125 19.1063C22.0875 19.1063 21.9375 19.2593 21.9375 19.4886V19.8327C21.6 19.6798 21.375 19.3357 21.375 18.9534Z" fill="#111111"/>
<path d="M3.975 23.9235C9.225 23.9235 14.475 23.9235 19.6875 23.9235C19.9125 23.9235 20.0625 23.7706 20.0625 23.5412V11.307L20.85 12.0335C21.45 12.5687 22.35 12.5687 22.9125 12.0335C23.5875 11.4217 23.5875 10.3513 22.9125 9.70131L12.8625 0.37276C12.3 -0.124253 11.4375 -0.124253 10.875 0.37276L6.7875 4.15771V2.24612H7.425C7.65 2.24612 7.8 2.09319 7.8 1.8638C7.8 1.63441 7.65 1.48148 7.425 1.48148C5.625 1.48148 4.425 1.48148 2.625 1.48148C2.4 1.48148 2.25 1.63441 2.25 1.8638C2.25 2.09319 2.4 2.24612 2.625 2.24612H3.2625V7.40741L0.7875 9.70131C0.1125 10.313 0.1125 11.4217 0.7875 12.0335C1.35 12.5687 2.2875 12.5687 2.85 12.0335L3.6375 11.307V18.5329H2.625V17.8447C2.625 17.6153 2.475 17.4624 2.25 17.4624C2.025 17.4624 1.875 17.6153 1.875 17.8447V18.5329H0.75V17.8447C0.75 17.6153 0.6 17.4624 0.375 17.4624C0.15 17.4624 0 17.6153 0 17.8447V21.9355C0 22.1649 0.15 22.3178 0.375 22.3178C0.6 22.3178 0.75 22.1649 0.75 21.9355V21.2473H1.875V21.9355C1.875 22.1649 2.025 22.3178 2.25 22.3178C2.475 22.3178 2.625 22.1649 2.625 21.9355V21.2473H3.6V23.503C3.6 23.7324 3.7875 23.9235 3.975 23.9235ZM12.3 23.1589V15.0538H17.175V23.1589H12.3ZM3.975 2.24612H6V4.84588L3.975 6.71924V2.24612ZM2.325 11.46C2.025 11.7276 1.575 11.7276 1.275 11.46C0.9375 11.1541 0.9375 10.5806 1.275 10.2748C2.325 9.319 -2.475 13.7157 11.3625 0.946236C11.625 0.678614 12.075 0.678614 12.3375 0.946236L22.425 10.2748C22.7625 10.5806 22.7625 11.1541 22.425 11.46C22.125 11.7276 21.675 11.7276 21.375 11.46L12.1125 2.89606C11.9625 2.78136 11.7375 2.78136 11.625 2.89606C5.1375 8.86021 6.5625 7.5221 2.325 11.46ZM11.85 3.69892L19.35 10.6189V23.1589H17.925V15.0538H18.15C18.375 15.0538 18.525 14.9008 18.525 14.6714C18.525 14.4421 18.375 14.2891 18.15 14.2891C16.125 14.2891 13.35 14.2891 11.325 14.2891C11.1 14.2891 10.95 14.4421 10.95 14.6714C10.95 14.9008 11.1 15.0538 11.325 15.0538H11.55V23.1589H4.35V10.6189L11.85 3.69892ZM0.75 20.4827V19.2593H1.875V20.4827H0.75ZM2.625 20.4827V19.2593H3.6V20.4827H2.625Z" stroke="#111111" stroke-width="4" mask="url(#path-1-inside-1_6497_1846)"/>
<path d="M11.85 12.2246C13.3875 12.2246 14.6625 10.9247 14.6625 9.35723C14.6625 7.78972 13.3875 6.48984 11.85 6.48984C10.3125 6.48984 9.0375 7.78972 9.0375 9.35723C9.0375 10.9247 10.3125 12.2246 11.85 12.2246ZM9.825 9.73954H11.475V11.4217C10.65 11.2688 9.975 10.5806 9.825 9.73954ZM12.225 11.4217V9.73954H13.875C13.725 10.5806 13.05 11.2688 12.225 11.4217ZM13.875 8.97491H12.225V7.29271C13.05 7.44564 13.725 8.13381 13.875 8.97491ZM11.475 7.29271V8.97491H9.825C9.975 8.13381 10.65 7.44564 11.475 7.29271ZM5.55 21.0944H10.35C10.575 21.0944 10.725 20.9415 10.725 20.7121V16.3919C10.725 16.1625 10.575 16.0096 10.35 16.0096H5.55C5.325 16.0096 5.175 16.1625 5.175 16.3919V20.6738C5.175 20.9032 5.3625 21.0944 5.55 21.0944ZM5.925 18.9534H7.575V20.3297H5.925V18.9534ZM8.325 20.3297V18.9534H9.975V20.3297H8.325ZM9.975 18.1888H8.325V16.8124H9.975V18.1888ZM7.575 16.7742V18.1505H5.925V16.7742H7.575ZM13.1625 18.1123C12.9375 18.1123 12.7875 18.2652 12.7875 18.4946V19.2593C12.7875 19.4886 12.9375 19.6416 13.1625 19.6416C13.3875 19.6416 13.5375 19.4886 13.5375 19.2593V18.4946C13.5375 18.3035 13.35 18.1123 13.1625 18.1123ZM22.3125 24C22.5375 24 22.6875 23.8471 22.6875 23.6177V20.6356C23.4375 20.4444 24 19.7945 24 18.9534C24 18.227 23.4 16.0478 22.3125 16.0478C21.225 16.0478 20.625 18.227 20.625 18.9534C20.625 19.7563 21.1875 20.4444 21.9375 20.6356V23.6177C21.9375 23.8471 22.0875 24 22.3125 24ZM21.375 18.9534C21.375 18.1505 21.975 16.8124 22.3125 16.8124C22.65 16.8124 23.25 18.1888 23.25 18.9534C23.25 19.3357 23.025 19.6798 22.6875 19.8327V19.4886C22.6875 19.2593 22.5375 19.1063 22.3125 19.1063C22.0875 19.1063 21.9375 19.2593 21.9375 19.4886V19.8327C21.6 19.6798 21.375 19.3357 21.375 18.9534Z" stroke="#111111" stroke-width="4" mask="url(#path-1-inside-1_6497_1846)"/>
</svg>
