<svg width="24" height="24" viewBox="0 0 24 24" fill="none" xmlns="http://www.w3.org/2000/svg">
<path d="M23.9882 23.0157C23.7243 21.4433 22.4796 20.2189 20.923 19.9759C20.2901 18.7515 19.0274 17.9713 17.6388 17.9713C16.9249 17.9713 16.2231 18.1784 15.6353 18.5625C15.4433 18.2054 15.2034 17.8783 14.9124 17.5872C14.1386 16.804 13.1039 16.3749 12.0001 16.3749C11.2473 16.3749 10.5095 16.5819 9.87365 16.969C9.60371 17.1341 9.35477 17.3261 9.13883 17.5362C8.8299 17.8333 8.56597 18.1844 8.36801 18.5625C7.77416 18.1784 7.07533 17.9683 6.3585 17.9683C4.97584 17.9683 3.70714 18.7515 3.0773 19.9729C1.51768 20.2189 0.269978 21.4403 0.0120408 23.0127C-0.029949 23.2528 0.0390343 23.4989 0.200995 23.6909C0.365955 23.886 0.611895 24 0.866833 24H23.1304C23.3914 24 23.6343 23.886 23.7993 23.6909C23.9582 23.5019 24.0302 23.2558 23.9882 23.0157ZM4.50195 22.3585C4.295 22.3585 4.10605 22.1695 4.10605 21.9594C4.10605 21.7524 4.295 21.5693 4.50195 21.5693C4.7119 21.5693 4.89786 21.7524 4.89786 21.9594C4.89486 22.1695 4.7119 22.3585 4.50195 22.3585ZM7.15631 20.7981C6.94936 20.7981 6.7604 20.609 6.7604 20.399C6.7604 20.1919 6.94936 20.0089 7.15631 20.0089C7.36626 20.0089 7.55221 20.1919 7.55221 20.399C7.55221 20.612 7.36626 20.7981 7.15631 20.7981ZM8.48798 22.3165C8.28103 22.3165 8.09208 22.1275 8.09208 21.9174C8.09208 21.7104 8.28103 21.5273 8.48798 21.5273C8.69793 21.5273 8.88389 21.7104 8.88389 21.9174C8.88389 22.1275 8.69793 22.3165 8.48798 22.3165ZM11.2053 21.5843C10.9984 21.5843 10.8094 21.3953 10.8094 21.1852C10.8094 20.9782 10.9984 20.7951 11.2053 20.7951C11.4153 20.7951 11.6012 20.9782 11.6012 21.1852C11.5982 21.3983 11.4153 21.5843 11.2053 21.5843ZM11.7782 19.4297C11.5712 19.4297 11.3823 19.2407 11.3823 19.0306C11.3823 18.8235 11.5712 18.6405 11.7782 18.6405C11.9881 18.6405 12.1741 18.8235 12.1741 19.0306C12.1741 19.2407 11.9911 19.4297 11.7782 19.4297ZM13.9347 22.7396C13.7277 22.7396 13.5388 22.5506 13.5388 22.3405C13.5388 22.1335 13.7277 21.9504 13.9347 21.9504C14.1446 21.9504 14.3306 22.1335 14.3306 22.3405C14.3306 22.5536 14.1446 22.7396 13.9347 22.7396ZM14.6185 20.9601C14.4115 20.9601 14.2226 20.7711 14.2226 20.561C14.2226 20.354 14.4115 20.1709 14.6185 20.1709C14.8284 20.1709 15.0144 20.354 15.0144 20.561C15.0144 20.7741 14.8284 20.9601 14.6185 20.9601ZM17.7047 20.8341C17.4978 20.8341 17.3088 20.6451 17.3088 20.435C17.3088 20.2279 17.4978 20.0449 17.7047 20.0449C17.9147 20.0449 18.1007 20.2279 18.1007 20.435C18.0977 20.6451 17.9147 20.8341 17.7047 20.8341ZM20.0382 22.3165C19.8312 22.3165 19.6423 22.1275 19.6423 21.9174C19.6423 21.7104 19.8312 21.5273 20.0382 21.5273C20.2481 21.5273 20.4341 21.7104 20.4341 21.9174C20.4341 22.1275 20.2511 22.3165 20.0382 22.3165Z" fill="white"/>
<path d="M12.1231 8.54265V16.75C12.1231 16.96 11.9551 17.1251 11.7482 17.1251C11.5412 17.1251 11.3733 16.96 11.3733 16.75V8.54265C11.4963 8.55766 11.6222 8.56666 11.7482 8.56666C11.8742 8.56366 11.9971 8.55766 12.1231 8.54265Z" fill="white"/>
<path d="M12.1231 12.8849C12.1231 12.9749 12.0901 13.0679 12.0211 13.1399C11.9491 13.218 11.8472 13.26 11.7452 13.26C11.6552 13.26 11.5622 13.227 11.4903 13.158C11.4513 13.1189 11.4123 13.0859 11.3703 13.0529C11.1093 12.8189 10.8364 12.5968 10.5575 12.3957C10.6775 12.1677 10.7644 11.9186 10.8124 11.6545C11.0014 11.7836 11.1843 11.9216 11.3703 12.0716C11.5832 12.2367 11.7992 12.4167 12.0031 12.6058C12.0811 12.6808 12.1231 12.7828 12.1231 12.8849ZM20.611 10.7843C19.9242 11.4115 19.4833 12.1587 19.0574 12.8759C18.3766 14.0312 17.7347 15.1175 16.2441 15.2165C16.0971 15.2315 15.9592 15.2405 15.8182 15.2405C14.9124 15.2405 14.1596 14.9194 13.6707 14.3223C13.5688 14.1932 13.4788 14.0582 13.4068 13.9172C15.4223 12.5818 17.7557 11.7446 17.7857 11.7386C17.9807 11.6695 18.0827 11.4565 18.0167 11.2614C17.9447 11.0634 17.7317 10.9613 17.5338 11.0274C17.4138 11.0724 15.1974 11.8586 13.1638 13.176C13.0859 12.7078 13.1249 12.1977 13.2928 11.6785C13.4518 11.1804 13.7127 10.7453 14.0486 10.4092C15.2903 9.17583 17.4558 9.08881 20.4851 10.1541C20.608 10.1961 20.704 10.3041 20.731 10.4332C20.755 10.5622 20.71 10.6943 20.611 10.7843ZM13.4068 13.9172C12.9509 14.2173 12.516 14.5443 12.1201 14.8954C12.0781 14.9285 12.0361 14.9645 12.0001 15.0005C11.9252 15.0635 11.8352 15.0995 11.7452 15.0995C11.6432 15.0995 11.5412 15.0575 11.4663 14.9795C11.4033 14.9074 11.3673 14.8174 11.3673 14.7244C11.3673 14.6224 11.4093 14.5203 11.4873 14.4453C11.6852 14.2623 11.9012 14.0852 12.1201 13.9112C12.456 13.6501 12.8039 13.407 13.1608 13.176C13.2088 13.437 13.2868 13.6861 13.4068 13.9172Z" fill="white"/>
<path d="M14.7775 5.5268C14.7775 7.07224 13.6137 8.3536 12.1231 8.54265V4.4465C12.1231 4.23944 11.9551 4.0714 11.7482 4.0714C11.5412 4.0714 11.3733 4.23944 11.3733 4.4465V8.53965C9.87665 8.3566 8.71293 7.07224 8.71293 5.5238C8.71293 3.97537 11.1603 0.5334 11.4423 0.146291C11.5802 -0.0487637 11.9102 -0.0487637 12.0511 0.146291C12.3301 0.536401 14.7775 3.98137 14.7775 5.5268ZM5.68966 9.55694C5.62968 9.75199 5.73765 9.96205 5.9386 10.0281C5.9686 10.0401 8.422 10.8143 10.5575 12.3957C10.4825 12.5338 10.3955 12.6718 10.2935 12.7949C9.77767 13.428 8.97687 13.7671 8.0111 13.7671C7.86114 13.7671 7.70517 13.7581 7.55221 13.7401C5.98659 13.6411 5.30276 12.4828 4.57693 11.2554C4.12104 10.4842 3.64716 9.68598 2.90934 9.01379C2.81636 8.92376 2.77137 8.78872 2.79537 8.65969C2.82236 8.52765 2.91534 8.42262 3.04131 8.37761C6.26552 7.24929 8.56896 7.33932 9.89464 8.64768C10.2486 9.00178 10.5215 9.46391 10.6924 9.99206C10.8754 10.5712 10.9144 11.1384 10.8124 11.6545C8.63795 10.0971 6.28052 9.34688 6.16355 9.31087C5.9656 9.25085 5.75265 9.35888 5.68966 9.55694Z" fill="white"/>
</svg>
