<svg width="24" height="24" viewBox="0 0 24 24" fill="none" xmlns="http://www.w3.org/2000/svg">
<path d="M0.87201 16.6151L3.00714 17.3282C3.07881 17.3543 3.15445 17.3679 3.23072 17.3682C3.35466 17.3677 3.47619 17.334 3.5827 17.2706L10.8865 12.8948C10.979 13.1579 11.0909 13.4138 11.2212 13.6604L9.9413 15.3763C9.8342 15.5216 9.78839 15.7031 9.81371 15.8819L9.91932 16.6227L9.12533 16.8579C8.98164 16.8996 8.8556 16.9873 8.76652 17.1075C8.67744 17.2277 8.63023 17.3738 8.63213 17.5234C8.63986 17.6908 8.66058 17.8573 8.69414 18.0214L8.72536 18.2214L7.92537 18.4578C7.76826 18.5055 7.63341 18.6079 7.54523 18.7464C7.45705 18.8849 7.42135 19.0504 7.44459 19.213L7.5314 19.8254L6.76263 20.0542C6.13711 20.2373 5.76179 20.8752 5.90546 21.5109L6.34546 23.4612C6.37759 23.6127 6.46043 23.7486 6.58029 23.8466C6.70014 23.9445 6.84984 23.9987 7.00464 24C7.02264 24 7.04106 24 7.05943 23.9976L9.30335 23.844C9.40406 23.8397 9.50251 23.8128 9.59146 23.7654C9.68041 23.718 9.75759 23.6512 9.81732 23.57L15.0707 16.5263C17.0563 16.9271 19.1034 16.2225 20.4216 14.6845C21.7398 13.1466 22.123 11.0159 21.4233 9.11495C23.1182 7.95549 23.9304 5.87666 23.4705 3.87531C23.0107 1.87396 21.3724 0.358213 19.3414 0.0549429C17.3104 -0.248328 15.3008 0.722701 14.2763 2.50239C13.491 2.49276 12.7124 2.649 11.9916 2.96088C11.2708 3.27276 10.6239 3.73326 10.0932 4.31228C9.56257 4.89131 9.16009 5.57581 8.9121 6.32104C8.66411 7.06627 8.5762 7.85545 8.65411 8.63698L6.80936 9.74015C6.65877 9.8348 6.55057 9.98398 6.50736 10.1565L6.32455 10.8805L5.50136 10.7957C5.35216 10.779 5.2016 10.8117 5.07283 10.8889C4.94405 10.9661 4.84419 11.0834 4.78861 11.2229C4.73192 11.3836 4.68779 11.5485 4.65661 11.7161L4.611 11.9077L3.78824 11.8245C3.62333 11.805 3.45697 11.8462 3.32017 11.9403C3.18338 12.0344 3.08546 12.1751 3.04468 12.336L2.89389 12.936L2.09714 12.856C1.83241 12.8263 1.56527 12.8848 1.33718 13.0224C1.18187 13.1132 1.04845 13.237 0.946413 13.3852C0.844378 13.5333 0.776229 13.7021 0.746811 13.8796L0.412839 15.8471C0.347451 16.1828 0.545397 16.5138 0.87201 16.6151ZM20.3017 13.4824C19.2262 15.3177 17.065 16.2187 15.0043 15.6907C14.9276 15.6712 14.8468 15.6749 14.7722 15.7013C14.6976 15.7277 14.6325 15.7757 14.5851 15.8391L9.20895 23.0492L7.10542 23.1932L6.68463 21.3381C6.67082 21.2761 6.67042 21.212 6.68347 21.1499C6.69651 21.0878 6.72268 21.0292 6.76024 20.9781C6.81724 20.9029 6.89689 20.8481 6.98744 20.8217L7.8522 20.5645C8.01047 20.5185 8.14667 20.4167 8.23548 20.2778C8.32428 20.139 8.35965 19.9727 8.335 19.8097L8.24819 19.1973L9.04817 18.9609C9.20669 18.9149 9.34304 18.8127 9.43179 18.6736C9.52055 18.5344 9.55565 18.3677 9.53055 18.2045L9.48297 17.8957C9.46455 17.7789 9.44697 17.6714 9.43736 17.5989L10.2445 17.3602C10.4022 17.3137 10.5377 17.2116 10.6259 17.0729C10.7142 16.9343 10.7492 16.7683 10.7245 16.6058L10.6117 15.8138L12.0169 13.9295C12.0641 13.8662 12.0916 13.7903 12.0958 13.7114C12.1 13.6326 12.0807 13.5542 12.0405 13.4863C10.8183 11.4299 11.2968 8.78763 13.1625 7.2905C15.0281 5.79337 17.7114 5.89846 19.4542 7.53687C19.8393 7.89662 20.1615 8.31829 20.4074 8.7844C19.947 9.00471 19.4499 9.13814 18.941 9.178C18.8166 8.43032 18.1832 7.87346 17.4257 7.846C16.6682 7.81853 15.9961 8.328 15.8179 9.0647C15.6396 9.80141 16.0046 10.5618 16.6908 10.8836C17.3771 11.2054 18.195 10.9997 18.6474 10.3915C18.738 10.2667 18.8096 10.129 18.8598 9.98314C19.5045 9.95149 20.1368 9.79429 20.7213 9.52036C20.9397 10.1722 21.0152 10.8634 20.9428 11.547C20.8704 12.2307 20.6518 12.8907 20.3017 13.4824ZM16.8619 8.81576C16.9728 8.72434 17.1065 8.66475 17.2487 8.64336C17.2875 8.63778 17.3266 8.63497 17.3659 8.63497C17.5307 8.63544 17.6914 8.68684 17.8259 8.78214C17.9605 8.87744 18.0623 9.01198 18.1174 9.16736C17.683 9.11743 17.2594 8.99875 16.8622 8.81576H16.8619ZM17.9662 9.95652C17.8676 10.0718 17.7381 10.1564 17.593 10.2005C17.4479 10.2446 17.2932 10.2462 17.1472 10.2053C17.0012 10.1643 16.8699 10.0825 16.7689 9.96936C16.6679 9.85625 16.6013 9.71661 16.577 9.56691C17.0186 9.76419 17.4868 9.89545 17.9666 9.95647L17.9662 9.95652ZM18.6042 0.800838C20.4181 0.798214 22.028 1.96208 22.5942 3.68533C23.1604 5.40858 22.5544 7.30048 21.0925 8.37417C20.8084 7.84344 20.4391 7.36294 19.9993 6.95179C19.8793 6.84098 19.7562 6.74058 19.6305 6.6414C19.5528 6.34342 19.45 6.05254 19.3233 5.77185C18.9988 5.05268 18.5246 4.411 17.9324 3.88963C17.3402 3.36826 16.6436 2.97919 15.8891 2.74838C15.653 2.67736 15.4124 2.62192 15.1691 2.5824C15.5556 2.03049 16.0698 1.58023 16.668 1.27002C17.2661 0.959806 17.9304 0.798837 18.6042 0.800838ZM1.53921 14.0127C1.54943 13.9497 1.57354 13.8897 1.60978 13.8372C1.64603 13.7846 1.6935 13.7407 1.74878 13.7088C1.82855 13.6601 1.9223 13.6394 2.01516 13.65L2.9147 13.742C3.07811 13.7607 3.24269 13.7188 3.37723 13.6242C3.51178 13.5296 3.60694 13.3889 3.64466 13.2288L3.79588 12.6289L4.62746 12.7145C4.79181 12.7299 4.95626 12.6859 5.09099 12.5905C5.22572 12.4952 5.3218 12.3546 5.36182 12.1945L5.43222 11.8989C5.46021 11.7817 5.485 11.6725 5.5038 11.6001L6.34138 11.6861C6.50471 11.704 6.66896 11.6618 6.80354 11.5676C6.93811 11.4733 7.03385 11.3334 7.07293 11.1738L7.2705 10.3938L9.28601 9.18906C9.3537 9.14862 9.40792 9.08908 9.44186 9.01791C9.4758 8.94675 9.48795 8.86714 9.47678 8.78909C9.13447 6.45808 10.5361 4.22362 12.7837 3.51715C15.0313 2.81067 17.4592 3.84147 18.512 5.94917C17.6239 5.53759 16.6423 5.36933 15.6677 5.4616C14.8884 5.53146 14.1323 5.76387 13.4483 6.14385C12.7643 6.52382 12.1676 7.04293 11.6965 7.66769C11.2254 8.29245 10.8905 9.00901 10.7133 9.77114C10.5362 10.5333 10.5207 11.3241 10.6679 12.0926L3.21872 16.5555L1.22079 15.8883L1.53921 14.0127Z" fill="black"/>
</svg>
