<svg width="24" height="24" viewBox="0 0 24 24" fill="none" xmlns="http://www.w3.org/2000/svg">
<path d="M20.0835 6.31153V2.34375H17.108V4.08319M18.2756 23.5312V21.9892M13.3938 23.5312H21.0632C21.0632 20.8504 18.89 18.6772 16.2091 18.6772H15.4602C14.1198 18.6772 12.9063 19.2205 12.0278 20.0989M18.2854 15.2488V16.3304C18.2854 17.6265 17.2347 18.6772 15.9386 18.6772C14.6424 18.6772 13.5917 17.6265 13.5917 16.3304V14.7869M22.2178 11.0448C21.926 11.0451 21.6426 10.9476 21.4127 10.7681L12 3.44423L2.5873 10.7681C2.01519 11.2133 1.19056 11.1103 0.745438 10.5382C0.300313 9.96614 0.403204 9.14152 0.975313 8.69639L11.194 0.745359C11.668 0.376547 12.332 0.376547 12.806 0.745359L23.0247 8.69639C23.5968 9.14156 23.6997 9.96614 23.2545 10.5382C22.9958 10.8708 22.6088 11.0448 22.2178 11.0448Z" stroke="black" stroke-width="0.9375" stroke-miterlimit="10" stroke-linecap="round" stroke-linejoin="round"/>
<path d="M5.72444 23.5312V21.9892M10.6063 23.5312V21.9892M15.9387 11.6987C14.3592 11.6987 13.0788 12.9791 13.0788 14.5586C13.0788 14.621 13.0816 14.6827 13.0855 14.7441C13.748 14.6937 14.3474 14.418 14.8071 13.9929C15.3072 14.8245 16.2182 15.381 17.2594 15.381C17.7941 15.3817 18.3181 15.2318 18.7715 14.9483C18.7889 14.8208 18.7986 14.6909 18.7986 14.5586C18.7985 12.9791 17.5181 11.6987 15.9387 11.6987ZM8.16536 18.6772H7.79088C5.11005 18.6772 2.93683 20.8504 2.93683 23.5312H13.3938C13.3938 20.8504 11.2206 18.6772 8.5398 18.6772H8.16536Z" stroke="black" stroke-width="0.9375" stroke-miterlimit="10" stroke-linecap="round" stroke-linejoin="round"/>
<path d="M10.0656 14.9191C10.2332 15.0108 10.3731 15.1459 10.4705 15.3102C10.5679 15.4746 10.6193 15.6621 10.6193 15.8531V16.327C10.6193 17.6249 9.56712 18.6772 8.2691 18.6772C6.97113 18.6772 5.91888 17.625 5.91888 16.327V15.9527C5.91889 15.7156 5.99802 15.4853 6.14374 15.2983C6.28946 15.1113 6.49342 14.9783 6.72331 14.9203L9.01301 14.3433L10.0656 14.9191Z" stroke="black" stroke-width="0.9375" stroke-miterlimit="10" stroke-linecap="round" stroke-linejoin="round"/>
<path d="M11.6167 19.616C12.503 18.6943 12.4566 17.2237 11.514 16.3597L10.8139 15.718L11.0679 14.9045C11.6573 13.0167 10.2468 11.0987 8.26911 11.0987C6.29141 11.0987 4.88094 13.0167 5.47035 14.9045L5.72432 15.718L5.02424 16.3597C4.08168 17.2237 4.03532 18.6943 4.92149 19.616M17.4525 12.1366C17.5436 11.9281 17.5905 11.7029 17.5902 11.4754C17.5902 10.5632 16.8507 9.82373 15.9385 9.82373C15.0263 9.82373 14.2869 10.5632 14.2869 11.4754C14.2869 11.682 14.3248 11.8799 14.3942 12.0622" stroke="black" stroke-width="0.9375" stroke-miterlimit="10" stroke-linecap="round" stroke-linejoin="round"/>
</svg>
