<svg width="24" height="24" viewBox="0 0 24 24" fill="none" xmlns="http://www.w3.org/2000/svg">
<g clip-path="url(#clip0_6177_39360)">
<path d="M23.8552 7.02797L19.702 4.00781C19.7891 3.77178 19.8051 3.51543 19.7482 3.27038C19.6913 3.02533 19.5639 2.8023 19.3817 2.6288C19.1996 2.4553 18.9706 2.33891 18.7231 2.29401C18.4755 2.2491 18.2203 2.27764 17.9888 2.37609C17.276 1.62537 16.4179 1.02757 15.4668 0.619072C14.5156 0.210579 13.4913 -5.32305e-05 12.4561 1.00905e-08H11.1858C9.65134 0.00302432 8.17826 0.602817 7.07812 1.6725C5.61981 1.39887 4.11186 1.67748 2.8476 2.45413C1.58334 3.23079 0.653178 4.44995 0.238058 5.87445C-0.177063 7.29896 -0.0474581 8.82695 0.601659 10.1612C1.25078 11.4954 2.37299 12.5405 3.75 13.0931V21.7734C3.74996 21.8196 3.75906 21.8653 3.77676 21.908C3.79445 21.9506 3.82041 21.9893 3.85313 22.0219L5.72813 23.8969C5.7607 23.9296 5.79942 23.9555 5.84205 23.9733C5.88469 23.991 5.9304 24.0001 5.97656 24.0001C6.02273 24.0001 6.06844 23.991 6.11107 23.9733C6.15371 23.9555 6.19242 23.9296 6.225 23.8969L8.1 22.0219C8.13272 21.9893 8.15867 21.9506 8.17637 21.908C8.19407 21.8653 8.20316 21.8196 8.20312 21.7734V20.8359C8.20316 20.7898 8.19407 20.7441 8.17637 20.7014C8.15867 20.6588 8.13272 20.6201 8.1 20.5875L7.41141 19.8984L8.1 19.2094C8.13266 19.1768 8.15856 19.138 8.17624 19.0954C8.19391 19.0528 8.20301 19.0071 8.20301 18.9609C8.20301 18.9148 8.19391 18.8691 8.17624 18.8265C8.15856 18.7838 8.13266 18.7451 8.1 18.7125L7.41141 18.0234L8.1 17.3344C8.13266 17.3018 8.15856 17.263 8.17624 17.2204C8.19391 17.1778 8.20301 17.1321 8.20301 17.0859C8.20301 17.0398 8.19391 16.9941 8.17624 16.9515C8.15856 16.9088 8.13266 16.8701 8.1 16.8375L7.41141 16.1484L8.1 15.4594C8.13272 15.4268 8.15867 15.3881 8.17637 15.3455C8.19407 15.3028 8.20316 15.2571 8.20312 15.2109V13.0931C9.23844 12.6758 10.1365 11.9774 10.7962 11.0769C11.4558 10.1763 11.8506 9.10939 11.9363 7.99641C12.2809 8.07177 12.6318 8.11493 12.9844 8.12531V20.4375C12.9844 20.5307 13.0214 20.6202 13.0873 20.6861C13.1533 20.752 13.2427 20.7891 13.3359 20.7891H23.6484C23.7417 20.7891 23.8311 20.752 23.897 20.6861C23.963 20.6202 24 20.5307 24 20.4375V7.3125C24 7.25702 23.9868 7.20234 23.9616 7.1529C23.9365 7.10345 23.9 7.06065 23.8552 7.02797ZM19.0781 3.5625C19.0781 3.67839 19.0438 3.79167 18.9794 3.88803C18.915 3.98439 18.8235 4.05949 18.7164 4.10384C18.6094 4.14818 18.4915 4.15979 18.3779 4.13718C18.2642 4.11457 18.1598 4.05877 18.0779 3.97682C17.9959 3.89488 17.9401 3.79047 17.9175 3.67681C17.8949 3.56315 17.9065 3.44534 17.9509 3.33827C17.9952 3.23121 18.0703 3.13969 18.1667 3.07531C18.263 3.01093 18.3763 2.97656 18.4922 2.97656C18.6475 2.97681 18.7964 3.03862 18.9062 3.14845C19.0161 3.25828 19.0779 3.40718 19.0781 3.5625ZM7.5 15.0652L6.66563 15.9C6.63297 15.9326 6.60706 15.9713 6.58939 16.014C6.57171 16.0566 6.56262 16.1023 6.56262 16.1484C6.56262 16.1946 6.57171 16.2403 6.58939 16.2829C6.60706 16.3255 6.63297 16.3643 6.66563 16.3969L7.35422 17.0859L6.66563 17.775C6.63297 17.8076 6.60706 17.8463 6.58939 17.889C6.57171 17.9316 6.56262 17.9773 6.56262 18.0234C6.56262 18.0696 6.57171 18.1153 6.58939 18.1579C6.60706 18.2005 6.63297 18.2393 6.66563 18.2719L7.35422 18.9609L6.66563 19.65C6.63297 19.6826 6.60706 19.7213 6.58939 19.764C6.57171 19.8066 6.56262 19.8523 6.56262 19.8984C6.56262 19.9446 6.57171 19.9903 6.58939 20.0329C6.60706 20.0755 6.63297 20.1143 6.66563 20.1469L7.5 20.9817V21.6277L5.97656 23.1511L4.45312 21.6277V13.3266C5.45179 13.5891 6.50134 13.5891 7.5 13.3266V15.0652ZM5.97656 12.8203C4.57796 12.8203 3.23664 12.2647 2.24768 11.2758C1.25872 10.2868 0.703125 8.94548 0.703125 7.54688C0.703125 6.14827 1.25872 4.80695 2.24768 3.81799C3.23664 2.82903 4.57796 2.27344 5.97656 2.27344C6.15659 2.27349 6.3365 2.28257 6.51562 2.30063C6.24729 2.64767 6.01882 3.02378 5.83453 3.42188C5.82984 3.43172 5.82609 3.44203 5.82141 3.45234C5.45128 3.49007 5.10774 3.6619 4.85555 3.93543C4.60336 4.20896 4.45995 4.5653 4.45235 4.93727C4.44475 5.30923 4.57349 5.67113 4.81429 5.95474C5.0551 6.23834 5.39134 6.42405 5.75961 6.47687C6.12789 6.52968 6.50277 6.44595 6.81357 6.24145C7.12437 6.03695 7.34963 5.72582 7.44687 5.36671C7.54412 5.00759 7.50663 4.62531 7.34148 4.29193C7.17633 3.95855 6.89492 3.6971 6.55031 3.55687C6.75358 3.15412 7.00889 2.77983 7.30969 2.44359C8.55126 2.76687 9.6324 3.53168 10.3506 4.59478C11.0688 5.65787 11.3748 6.94634 11.2114 8.21885C11.0479 9.49136 10.4261 10.6606 9.46249 11.5077C8.49888 12.3547 7.25953 12.8214 5.97656 12.8203ZM6.21328 5.75391C6.01249 5.81805 5.79471 5.80238 5.60516 5.71017C5.41562 5.61796 5.26887 5.45629 5.19539 5.25872C5.12191 5.06116 5.12736 4.84288 5.21059 4.64922C5.29382 4.45556 5.44844 4.3014 5.64234 4.21875C5.64234 4.24734 5.64 4.27594 5.64 4.30453C5.63804 4.84332 5.84329 5.36224 6.21328 5.75391ZM6.735 5.28094C6.48269 5.01936 6.34214 4.66983 6.34313 4.30641V4.23703C6.52795 4.32962 6.67089 4.48871 6.74323 4.68236C6.81558 4.876 6.81197 5.08985 6.73313 5.28094H6.735ZM11.9466 7.27641C11.8905 6.07467 11.4738 4.91767 10.7507 3.95616C10.0277 2.99464 9.03178 2.27319 7.89281 1.88578C8.82104 1.12325 9.98451 0.705392 11.1858 0.703125H12.4561C13.3864 0.703089 14.3072 0.890426 15.1635 1.25396C16.0198 1.6175 16.7942 2.14978 17.4403 2.81906C17.3194 2.98948 17.2418 3.18678 17.2143 3.3939C17.1868 3.60103 17.2101 3.81174 17.2823 4.00781L13.1292 7.02797C13.0844 7.06065 13.0479 7.10345 13.0227 7.1529C12.9976 7.20234 12.9844 7.25702 12.9844 7.3125V7.42172C12.6343 7.40953 12.2865 7.36082 11.9466 7.27641ZM23.2969 20.0859H13.6875V7.49156L17.6967 4.57594C17.9234 4.75447 18.2036 4.85154 18.4922 4.85154C18.7808 4.85154 19.0609 4.75447 19.2877 4.57594L23.2969 7.49156V20.0859Z" fill="white"/>
<path d="M18.712 9.35396C18.6497 9.3039 18.5721 9.27661 18.4922 9.27661C18.4122 9.27661 18.3347 9.3039 18.2723 9.35396L14.9911 11.9841C14.9183 12.0424 14.8717 12.1273 14.8614 12.22C14.8512 12.3127 14.8782 12.4056 14.9365 12.4784C14.9948 12.5512 15.0796 12.5979 15.1723 12.6081C15.265 12.6183 15.358 12.5913 15.4308 12.533L15.7345 12.2893V15.3094C15.7345 15.4027 15.7716 15.4921 15.8375 15.558C15.9034 15.624 15.9929 15.661 16.0861 15.661H20.8983C20.9915 15.661 21.0809 15.624 21.1469 15.558C21.2128 15.4921 21.2498 15.4027 21.2498 15.3094V12.2893L21.5536 12.533C21.5896 12.5619 21.631 12.5834 21.6754 12.5963C21.7197 12.6091 21.7662 12.6132 21.8121 12.6081C21.858 12.603 21.9024 12.589 21.9429 12.5667C21.9833 12.5445 22.019 12.5145 22.0479 12.4784C22.0768 12.4424 22.0983 12.401 22.1111 12.3567C22.124 12.3123 22.128 12.2659 22.123 12.22C22.1179 12.1741 22.1038 12.1296 22.0816 12.0891C22.0593 12.0487 22.0293 12.013 21.9933 11.9841L18.712 9.35396ZM18.8438 14.9579H18.1406V14.1376C18.1406 14.0443 18.1777 13.9549 18.2436 13.889C18.3095 13.823 18.3989 13.786 18.4922 13.786C18.5854 13.786 18.6749 13.823 18.7408 13.889C18.8067 13.9549 18.8438 14.0443 18.8438 14.1376V14.9579ZM20.5467 14.9579H19.5469V14.1376C19.5469 13.8578 19.4358 13.5896 19.238 13.3918C19.0402 13.194 18.7719 13.0829 18.4922 13.0829C18.2125 13.0829 17.9442 13.194 17.7464 13.3918C17.5486 13.5896 17.4375 13.8578 17.4375 14.1376V14.9579H16.4377V11.7235L18.4922 10.0782L20.5467 11.7254V14.9579ZM20.8983 16.3641H16.0861C15.9929 16.3641 15.9034 16.4012 15.8375 16.4671C15.7716 16.533 15.7345 16.6224 15.7345 16.7157V18.1219C15.7345 18.2152 15.7716 18.3046 15.8375 18.3705C15.9034 18.4365 15.9929 18.4735 16.0861 18.4735H20.8983C20.9915 18.4735 21.0809 18.4365 21.1469 18.3705C21.2128 18.3046 21.2498 18.2152 21.2498 18.1219V16.7157C21.2498 16.6224 21.2128 16.533 21.1469 16.4671C21.0809 16.4012 20.9915 16.3641 20.8983 16.3641ZM20.5467 17.7704H16.4377V17.0672H20.5467V17.7704Z" fill="white"/>
</g>
<defs>
<clipPath id="clip0_6177_39360">
<rect width="24" height="24" fill="white"/>
</clipPath>
</defs>
</svg>
