<svg width="25" height="22" viewBox="0 0 25 22" fill="none" xmlns="http://www.w3.org/2000/svg">
<mask id="path-1-outside-1_6439_14157" maskUnits="userSpaceOnUse" x="-0.5" y="-0.870087" width="26" height="23" fill="black">
<rect fill="white" x="-0.5" y="-0.870087" width="26" height="23"/>
<path d="M23.654 7.62073L13.9166 0.545981C13.1936 2.81185e-05 12.2154 -0.0096281 11.4807 0.522872L1.71167 7.62045C0.797328 8.28303 0.592484 9.56595 1.25506 10.4803C1.91764 11.3947 3.20052 11.5996 4.11495 10.9369L4.11533 10.9366L4.53359 10.6327V13.0828C4.23357 12.9901 3.92131 12.9431 3.6073 12.9433C1.89388 12.9434 0.5 14.3373 0.5 16.0506C0.5 17.764 1.89388 19.1579 3.60725 19.1579C3.92126 19.1581 4.23353 19.1111 4.53355 19.0184V19.1C4.53355 20.6258 5.7748 21.8671 7.30058 21.8671H18.0647C19.5905 21.8671 20.8318 20.6258 20.8318 19.1V10.6328L21.2504 10.9369C21.6037 11.193 22.0197 11.327 22.4477 11.327C22.5562 11.327 22.6656 11.3184 22.7749 11.3009C23.315 11.2147 23.7893 10.9233 24.1102 10.4803C24.7729 9.566 24.568 8.28307 23.654 7.62073ZM1.25 16.0506C1.25 14.7508 2.3075 13.6934 3.60725 13.6934C4.50861 13.6934 5.31795 14.1953 5.71953 15.0032C5.7506 15.0657 5.79849 15.1183 5.85782 15.155C5.91714 15.1918 5.98555 15.2112 6.05534 15.2112H12.3307L13.0285 16.0346L12.6644 16.8899H12.1162L11.4808 16.007C11.4461 15.9588 11.4003 15.9195 11.3474 15.8924C11.2945 15.8653 11.2359 15.8511 11.1764 15.8511C11.117 15.8511 11.0584 15.8653 11.0054 15.8924C10.9525 15.9195 10.9068 15.9588 10.8721 16.007L10.4288 16.623L9.98553 16.007C9.9508 15.9588 9.90508 15.9195 9.85216 15.8924C9.79924 15.8653 9.74063 15.8511 9.68117 15.8511C9.62171 15.8511 9.5631 15.8653 9.51018 15.8924C9.45726 15.9195 9.41155 15.9588 9.37681 16.007L8.74137 16.8899H6.05534C5.98555 16.8899 5.91714 16.9094 5.85782 16.9462C5.79849 16.9829 5.7506 17.0355 5.71953 17.098C5.318 17.9059 4.50861 18.4078 3.60725 18.4078C2.3075 18.4079 1.25 17.3504 1.25 16.0506ZM14.6263 21.1171H10.739V17.4758L11.1764 16.8681L11.6197 17.484C11.6544 17.5323 11.7001 17.5716 11.7531 17.5987C11.806 17.6258 11.8646 17.64 11.924 17.64H12.9123C12.9858 17.64 13.0577 17.6183 13.1191 17.5778C13.1804 17.5372 13.2285 17.4795 13.2573 17.4118L13.8091 16.1155C13.8363 16.0515 13.8452 15.9812 13.8348 15.9124C13.8244 15.8437 13.7951 15.7792 13.7501 15.7261L12.7903 14.5938C12.7551 14.5523 12.7113 14.5189 12.6619 14.496C12.6125 14.4731 12.5587 14.4613 12.5043 14.4613H10.7389V13.4676C10.7389 13.054 11.0755 12.7175 11.4891 12.7175H13.876C14.2896 12.7175 14.6262 13.054 14.6262 13.4676V21.1171H14.6263ZM5.28355 19.1V18.6702C5.68428 18.4136 6.02619 18.0641 6.27791 17.64H8.93347C8.99293 17.64 9.05154 17.6258 9.10446 17.5987C9.15738 17.5716 9.2031 17.5323 9.23783 17.484L9.68113 16.8681L9.989 17.2959V21.1171H7.30053C6.18842 21.1171 5.28355 20.2122 5.28355 19.1ZM20.0818 19.1C20.0818 20.2123 19.1769 21.1171 18.0647 21.1171H15.3763V13.4676C15.3763 12.6404 14.7033 11.9675 13.8761 11.9675H11.4892C10.662 11.9675 9.989 12.6404 9.989 13.4676V14.4613H6.27786C6.02614 14.0372 5.68423 13.6877 5.2835 13.4311V10.0879L12.6826 4.71209L20.0818 10.0879V19.1ZM23.5029 10.0402C23.2995 10.321 22.999 10.5057 22.6566 10.5603C22.314 10.6151 21.9711 10.533 21.6908 10.3299L12.9031 3.94522C12.8374 3.89745 12.76 3.87359 12.6827 3.87359C12.6053 3.87359 12.5279 3.8975 12.4623 3.94522L3.67447 10.3299C3.095 10.7494 2.28214 10.6196 1.86238 10.0402C1.44247 9.46076 1.57231 8.64767 2.15216 8.22743L11.9211 1.1299C12.3873 0.792075 13.0084 0.798638 13.4667 1.14608L13.4728 1.15067L23.2136 8.22781C23.7931 8.64767 23.9229 9.46076 23.5029 10.0402ZM2.94514 14.8305C2.2723 14.8305 1.72498 15.3779 1.72498 16.0506C1.72498 16.7234 2.27234 17.2707 2.94514 17.2707C3.61794 17.2707 4.16525 16.7234 4.16525 16.0506C4.16525 15.3779 3.61794 14.8305 2.94514 14.8305ZM2.94514 16.5207C2.68592 16.5207 2.47498 16.3099 2.47498 16.0506C2.47498 15.7914 2.68592 15.5805 2.94514 15.5805C3.20436 15.5805 3.41525 15.7914 3.41525 16.0506C3.41525 16.3099 3.20436 16.5207 2.94514 16.5207Z"/>
</mask>
<path d="M23.654 7.62073L13.9166 0.545981C13.1936 2.81185e-05 12.2154 -0.0096281 11.4807 0.522872L1.71167 7.62045C0.797328 8.28303 0.592484 9.56595 1.25506 10.4803C1.91764 11.3947 3.20052 11.5996 4.11495 10.9369L4.11533 10.9366L4.53359 10.6327V13.0828C4.23357 12.9901 3.92131 12.9431 3.6073 12.9433C1.89388 12.9434 0.5 14.3373 0.5 16.0506C0.5 17.764 1.89388 19.1579 3.60725 19.1579C3.92126 19.1581 4.23353 19.1111 4.53355 19.0184V19.1C4.53355 20.6258 5.7748 21.8671 7.30058 21.8671H18.0647C19.5905 21.8671 20.8318 20.6258 20.8318 19.1V10.6328L21.2504 10.9369C21.6037 11.193 22.0197 11.327 22.4477 11.327C22.5562 11.327 22.6656 11.3184 22.7749 11.3009C23.315 11.2147 23.7893 10.9233 24.1102 10.4803C24.7729 9.566 24.568 8.28307 23.654 7.62073ZM1.25 16.0506C1.25 14.7508 2.3075 13.6934 3.60725 13.6934C4.50861 13.6934 5.31795 14.1953 5.71953 15.0032C5.7506 15.0657 5.79849 15.1183 5.85782 15.155C5.91714 15.1918 5.98555 15.2112 6.05534 15.2112H12.3307L13.0285 16.0346L12.6644 16.8899H12.1162L11.4808 16.007C11.4461 15.9588 11.4003 15.9195 11.3474 15.8924C11.2945 15.8653 11.2359 15.8511 11.1764 15.8511C11.117 15.8511 11.0584 15.8653 11.0054 15.8924C10.9525 15.9195 10.9068 15.9588 10.8721 16.007L10.4288 16.623L9.98553 16.007C9.9508 15.9588 9.90508 15.9195 9.85216 15.8924C9.79924 15.8653 9.74063 15.8511 9.68117 15.8511C9.62171 15.8511 9.5631 15.8653 9.51018 15.8924C9.45726 15.9195 9.41155 15.9588 9.37681 16.007L8.74137 16.8899H6.05534C5.98555 16.8899 5.91714 16.9094 5.85782 16.9462C5.79849 16.9829 5.7506 17.0355 5.71953 17.098C5.318 17.9059 4.50861 18.4078 3.60725 18.4078C2.3075 18.4079 1.25 17.3504 1.25 16.0506ZM14.6263 21.1171H10.739V17.4758L11.1764 16.8681L11.6197 17.484C11.6544 17.5323 11.7001 17.5716 11.7531 17.5987C11.806 17.6258 11.8646 17.64 11.924 17.64H12.9123C12.9858 17.64 13.0577 17.6183 13.1191 17.5778C13.1804 17.5372 13.2285 17.4795 13.2573 17.4118L13.8091 16.1155C13.8363 16.0515 13.8452 15.9812 13.8348 15.9124C13.8244 15.8437 13.7951 15.7792 13.7501 15.7261L12.7903 14.5938C12.7551 14.5523 12.7113 14.5189 12.6619 14.496C12.6125 14.4731 12.5587 14.4613 12.5043 14.4613H10.7389V13.4676C10.7389 13.054 11.0755 12.7175 11.4891 12.7175H13.876C14.2896 12.7175 14.6262 13.054 14.6262 13.4676V21.1171H14.6263ZM5.28355 19.1V18.6702C5.68428 18.4136 6.02619 18.0641 6.27791 17.64H8.93347C8.99293 17.64 9.05154 17.6258 9.10446 17.5987C9.15738 17.5716 9.2031 17.5323 9.23783 17.484L9.68113 16.8681L9.989 17.2959V21.1171H7.30053C6.18842 21.1171 5.28355 20.2122 5.28355 19.1ZM20.0818 19.1C20.0818 20.2123 19.1769 21.1171 18.0647 21.1171H15.3763V13.4676C15.3763 12.6404 14.7033 11.9675 13.8761 11.9675H11.4892C10.662 11.9675 9.989 12.6404 9.989 13.4676V14.4613H6.27786C6.02614 14.0372 5.68423 13.6877 5.2835 13.4311V10.0879L12.6826 4.71209L20.0818 10.0879V19.1ZM23.5029 10.0402C23.2995 10.321 22.999 10.5057 22.6566 10.5603C22.314 10.6151 21.9711 10.533 21.6908 10.3299L12.9031 3.94522C12.8374 3.89745 12.76 3.87359 12.6827 3.87359C12.6053 3.87359 12.5279 3.8975 12.4623 3.94522L3.67447 10.3299C3.095 10.7494 2.28214 10.6196 1.86238 10.0402C1.44247 9.46076 1.57231 8.64767 2.15216 8.22743L11.9211 1.1299C12.3873 0.792075 13.0084 0.798638 13.4667 1.14608L13.4728 1.15067L23.2136 8.22781C23.7931 8.64767 23.9229 9.46076 23.5029 10.0402ZM2.94514 14.8305C2.2723 14.8305 1.72498 15.3779 1.72498 16.0506C1.72498 16.7234 2.27234 17.2707 2.94514 17.2707C3.61794 17.2707 4.16525 16.7234 4.16525 16.0506C4.16525 15.3779 3.61794 14.8305 2.94514 14.8305ZM2.94514 16.5207C2.68592 16.5207 2.47498 16.3099 2.47498 16.0506C2.47498 15.7914 2.68592 15.5805 2.94514 15.5805C3.20436 15.5805 3.41525 15.7914 3.41525 16.0506C3.41525 16.3099 3.20436 16.5207 2.94514 16.5207Z" fill="black"/>
<path d="M23.654 7.62073L13.9166 0.545981C13.1936 2.81185e-05 12.2154 -0.0096281 11.4807 0.522872L1.71167 7.62045C0.797328 8.28303 0.592484 9.56595 1.25506 10.4803C1.91764 11.3947 3.20052 11.5996 4.11495 10.9369L4.11533 10.9366L4.53359 10.6327V13.0828C4.23357 12.9901 3.92131 12.9431 3.6073 12.9433C1.89388 12.9434 0.5 14.3373 0.5 16.0506C0.5 17.764 1.89388 19.1579 3.60725 19.1579C3.92126 19.1581 4.23353 19.1111 4.53355 19.0184V19.1C4.53355 20.6258 5.7748 21.8671 7.30058 21.8671H18.0647C19.5905 21.8671 20.8318 20.6258 20.8318 19.1V10.6328L21.2504 10.9369C21.6037 11.193 22.0197 11.327 22.4477 11.327C22.5562 11.327 22.6656 11.3184 22.7749 11.3009C23.315 11.2147 23.7893 10.9233 24.1102 10.4803C24.7729 9.566 24.568 8.28307 23.654 7.62073ZM1.25 16.0506C1.25 14.7508 2.3075 13.6934 3.60725 13.6934C4.50861 13.6934 5.31795 14.1953 5.71953 15.0032C5.7506 15.0657 5.79849 15.1183 5.85782 15.155C5.91714 15.1918 5.98555 15.2112 6.05534 15.2112H12.3307L13.0285 16.0346L12.6644 16.8899H12.1162L11.4808 16.007C11.4461 15.9588 11.4003 15.9195 11.3474 15.8924C11.2945 15.8653 11.2359 15.8511 11.1764 15.8511C11.117 15.8511 11.0584 15.8653 11.0054 15.8924C10.9525 15.9195 10.9068 15.9588 10.8721 16.007L10.4288 16.623L9.98553 16.007C9.9508 15.9588 9.90508 15.9195 9.85216 15.8924C9.79924 15.8653 9.74063 15.8511 9.68117 15.8511C9.62171 15.8511 9.5631 15.8653 9.51018 15.8924C9.45726 15.9195 9.41155 15.9588 9.37681 16.007L8.74137 16.8899H6.05534C5.98555 16.8899 5.91714 16.9094 5.85782 16.9462C5.79849 16.9829 5.7506 17.0355 5.71953 17.098C5.318 17.9059 4.50861 18.4078 3.60725 18.4078C2.3075 18.4079 1.25 17.3504 1.25 16.0506ZM14.6263 21.1171H10.739V17.4758L11.1764 16.8681L11.6197 17.484C11.6544 17.5323 11.7001 17.5716 11.7531 17.5987C11.806 17.6258 11.8646 17.64 11.924 17.64H12.9123C12.9858 17.64 13.0577 17.6183 13.1191 17.5778C13.1804 17.5372 13.2285 17.4795 13.2573 17.4118L13.8091 16.1155C13.8363 16.0515 13.8452 15.9812 13.8348 15.9124C13.8244 15.8437 13.7951 15.7792 13.7501 15.7261L12.7903 14.5938C12.7551 14.5523 12.7113 14.5189 12.6619 14.496C12.6125 14.4731 12.5587 14.4613 12.5043 14.4613H10.7389V13.4676C10.7389 13.054 11.0755 12.7175 11.4891 12.7175H13.876C14.2896 12.7175 14.6262 13.054 14.6262 13.4676V21.1171H14.6263ZM5.28355 19.1V18.6702C5.68428 18.4136 6.02619 18.0641 6.27791 17.64H8.93347C8.99293 17.64 9.05154 17.6258 9.10446 17.5987C9.15738 17.5716 9.2031 17.5323 9.23783 17.484L9.68113 16.8681L9.989 17.2959V21.1171H7.30053C6.18842 21.1171 5.28355 20.2122 5.28355 19.1ZM20.0818 19.1C20.0818 20.2123 19.1769 21.1171 18.0647 21.1171H15.3763V13.4676C15.3763 12.6404 14.7033 11.9675 13.8761 11.9675H11.4892C10.662 11.9675 9.989 12.6404 9.989 13.4676V14.4613H6.27786C6.02614 14.0372 5.68423 13.6877 5.2835 13.4311V10.0879L12.6826 4.71209L20.0818 10.0879V19.1ZM23.5029 10.0402C23.2995 10.321 22.999 10.5057 22.6566 10.5603C22.314 10.6151 21.9711 10.533 21.6908 10.3299L12.9031 3.94522C12.8374 3.89745 12.76 3.87359 12.6827 3.87359C12.6053 3.87359 12.5279 3.8975 12.4623 3.94522L3.67447 10.3299C3.095 10.7494 2.28214 10.6196 1.86238 10.0402C1.44247 9.46076 1.57231 8.64767 2.15216 8.22743L11.9211 1.1299C12.3873 0.792075 13.0084 0.798638 13.4667 1.14608L13.4728 1.15067L23.2136 8.22781C23.7931 8.64767 23.9229 9.46076 23.5029 10.0402ZM2.94514 14.8305C2.2723 14.8305 1.72498 15.3779 1.72498 16.0506C1.72498 16.7234 2.27234 17.2707 2.94514 17.2707C3.61794 17.2707 4.16525 16.7234 4.16525 16.0506C4.16525 15.3779 3.61794 14.8305 2.94514 14.8305ZM2.94514 16.5207C2.68592 16.5207 2.47498 16.3099 2.47498 16.0506C2.47498 15.7914 2.68592 15.5805 2.94514 15.5805C3.20436 15.5805 3.41525 15.7914 3.41525 16.0506C3.41525 16.3099 3.20436 16.5207 2.94514 16.5207Z" stroke="black" stroke-width="0.08" mask="url(#path-1-outside-1_6439_14157)"/>
</svg>
