<svg width="24" height="24" viewBox="0 0 24 24" fill="none" xmlns="http://www.w3.org/2000/svg">
<path d="M23.154 8.6207L13.4166 1.54595C12.6936 0.999998 11.7154 0.990341 10.9807 1.52284L1.21167 8.62042C0.297328 9.283 0.0924844 10.5659 0.755063 11.4803C1.41764 12.3947 2.70052 12.5996 3.61495 11.9369L3.61533 11.9366L4.03359 11.6327V14.0828C3.73357 13.9901 3.42131 13.9431 3.1073 13.9433C1.39388 13.9434 0 15.3372 0 17.0506C0 18.764 1.39388 20.1579 3.10725 20.1579C3.42126 20.1581 3.73353 20.111 4.03355 20.0184V20.1C4.03355 21.6257 5.2748 22.867 6.80058 22.867H17.5647C19.0905 22.867 20.3318 21.6257 20.3318 20.1V11.6327L20.7504 11.9369C21.1037 12.193 21.5197 12.327 21.9477 12.327C22.0562 12.327 22.1656 12.3183 22.2749 12.3009C22.815 12.2147 23.2893 11.9232 23.6102 11.4803C24.2729 10.566 24.068 9.28304 23.154 8.6207ZM0.75 17.0506C0.75 15.7508 1.8075 14.6934 3.10725 14.6934C4.00861 14.6934 4.81795 15.1952 5.21953 16.0031C5.2506 16.0656 5.29849 16.1182 5.35782 16.155C5.41714 16.1917 5.48555 16.2112 5.55534 16.2112H11.8307L12.5285 17.0345L12.1644 17.8899H11.6162L10.9808 17.007C10.9461 16.9588 10.9003 16.9194 10.8474 16.8923C10.7945 16.8652 10.7359 16.8511 10.6764 16.8511C10.617 16.8511 10.5584 16.8652 10.5054 16.8923C10.4525 16.9194 10.4068 16.9588 10.3721 17.007L9.92878 17.623L9.48553 17.007C9.4508 16.9588 9.40508 16.9194 9.35216 16.8923C9.29924 16.8652 9.24063 16.8511 9.18117 16.8511C9.12171 16.8511 9.0631 16.8652 9.01018 16.8923C8.95726 16.9194 8.91155 16.9588 8.87681 17.007L8.24137 17.8899H5.55534C5.48555 17.8899 5.41714 17.9094 5.35782 17.9461C5.29849 17.9829 5.2506 18.0355 5.21953 18.098C4.818 18.9059 4.00861 19.4078 3.10725 19.4078C1.8075 19.4079 0.75 18.3504 0.75 17.0506ZM14.1263 22.1171H10.239V18.4758L10.6764 17.8681L11.1197 18.484C11.1544 18.5323 11.2001 18.5716 11.2531 18.5987C11.306 18.6258 11.3646 18.6399 11.424 18.64H12.4123C12.4858 18.6399 12.5577 18.6183 12.6191 18.5777C12.6804 18.5372 12.7285 18.4795 12.7573 18.4118L13.3091 17.1154C13.3363 17.0515 13.3452 16.9812 13.3348 16.9124C13.3244 16.8436 13.2951 16.7791 13.2501 16.7261L12.2903 15.5938C12.2551 15.5522 12.2113 15.5189 12.1619 15.496C12.1125 15.4731 12.0587 15.4613 12.0043 15.4613H10.2389V14.4676C10.2389 14.054 10.5755 13.7174 10.9891 13.7174H13.376C13.7896 13.7174 14.1262 14.054 14.1262 14.4676V22.1171H14.1263ZM4.78355 20.1V19.6701C5.18428 19.4136 5.52619 19.064 5.77791 18.64H8.43347C8.49293 18.6399 8.55154 18.6258 8.60446 18.5987C8.65738 18.5716 8.7031 18.5323 8.73783 18.484L9.18113 17.8681L9.489 18.2959V22.1171H6.80053C5.68842 22.1171 4.78355 21.2122 4.78355 20.1ZM19.5818 20.1C19.5818 21.2123 18.6769 22.1171 17.5647 22.1171H14.8763V14.4676C14.8763 13.6404 14.2033 12.9674 13.3761 12.9674H10.9892C10.162 12.9674 9.489 13.6404 9.489 14.4676V15.4613H5.77786C5.52614 15.0372 5.18423 14.6876 4.7835 14.4311V11.0878L12.1826 5.71206L19.5818 11.0878V20.1ZM23.0029 11.0402C22.7995 11.3209 22.499 11.5056 22.1566 11.5603C21.814 11.615 21.4711 11.533 21.1908 11.3299L12.4031 4.94519C12.3374 4.89742 12.26 4.87356 12.1827 4.87356C12.1053 4.87356 12.0279 4.89747 11.9623 4.94519L3.17447 11.3299C2.595 11.7494 1.78214 11.6196 1.36238 11.0402C0.942469 10.4607 1.07231 9.64764 1.65216 9.2274L11.4211 2.12987C11.8873 1.79204 12.5084 1.79861 12.9667 2.14604L12.9728 2.15064L22.7136 9.22778C23.2931 9.64764 23.4229 10.4607 23.0029 11.0402ZM2.44514 15.8305C1.7723 15.8305 1.22498 16.3779 1.22498 17.0506C1.22498 17.7234 1.77234 18.2707 2.44514 18.2707C3.11794 18.2707 3.66525 17.7234 3.66525 17.0506C3.66525 16.3779 3.11794 15.8305 2.44514 15.8305ZM2.44514 17.5207C2.18592 17.5207 1.97498 17.3098 1.97498 17.0506C1.97498 16.7914 2.18592 16.5805 2.44514 16.5805C2.70436 16.5805 2.91525 16.7914 2.91525 17.0506C2.91525 17.3098 2.70436 17.5207 2.44514 17.5207Z" fill="white"/>
</svg>
