<svg width="20" height="20" viewBox="0 0 20 20" fill="none" xmlns="http://www.w3.org/2000/svg">
<path d="M17.9163 13.3333L18.4053 13.902C18.6778 13.6677 18.7458 13.2732 18.5675 12.9612L17.9163 13.3333ZM2.08301 13.3333L1.43183 12.9612C1.25356 13.2732 1.32158 13.6677 1.59401 13.902L2.08301 13.3333ZM16.2497 10.4167H15.4997V10.6158L15.5985 10.7888L16.2497 10.4167ZM3.74967 10.4167L4.40086 10.7888L4.49967 10.6158V10.4167H3.74967ZM9.99967 15.8333V16.5833C13.3976 16.5833 16.477 15.5602 18.4053 13.902L17.9163 13.3333L17.4273 12.7647C15.8366 14.1325 13.1357 15.0833 9.99967 15.0833V15.8333ZM2.08301 13.3333L1.59401 13.902C3.52235 15.5602 6.6017 16.5833 9.99967 16.5833V15.8333V15.0833C6.86361 15.0833 4.16275 14.1325 2.572 12.7647L2.08301 13.3333ZM17.9163 13.3333L18.5675 12.9612L16.9009 10.0446L16.2497 10.4167L15.5985 10.7888L17.2652 13.7054L17.9163 13.3333ZM16.2497 10.4167H16.9997V7.91667H16.2497H15.4997V10.4167H16.2497ZM3.74967 7.91667H2.99967V10.4167H3.74967H4.49967V7.91667H3.74967ZM3.74967 10.4167L3.09849 10.0446L1.43183 12.9612L2.08301 13.3333L2.73419 13.7054L4.40086 10.7888L3.74967 10.4167ZM9.99967 1.66667V0.916672C6.13368 0.916672 2.99967 4.05068 2.99967 7.91667H3.74967H4.49967C4.49967 4.87911 6.96211 2.41667 9.99967 2.41667V1.66667ZM16.2497 7.91667H16.9997C16.9997 4.05068 13.8657 0.916672 9.99967 0.916672V1.66667V2.41667C13.0372 2.41667 15.4997 4.87911 15.4997 7.91667H16.2497Z" fill="#02836F"/>
<path d="M7.5 17.5C8.16345 18.0182 9.03956 18.3333 10 18.3333C10.9604 18.3333 11.8366 18.0182 12.5 17.5" stroke="#02836F" stroke-width="1.5" stroke-linejoin="round"/>
</svg>
