<svg width="19" height="22" viewBox="0 0 19 22" fill="none" xmlns="http://www.w3.org/2000/svg">
<path d="M18 0.750001H18.75C18.75 0.335788 18.4142 1.54972e-06 18 1.49012e-06V0.750001ZM0.999998 20.75H0.249998C0.249998 20.9489 0.329016 21.1397 0.469668 21.2803C0.61032 21.421 0.801086 21.5 0.999998 21.5V20.75ZM11 20.75V21.5H11.3107L11.5303 21.2803L11 20.75ZM18 13.75L18.5303 14.2803L18.75 14.0607V13.75H18ZM11 13.75V13H10.25V13.75H11ZM0.999998 20.75H1.75L1.75 10.75H1H0.25L0.249998 20.75H0.999998ZM0.999998 20.75V21.5H11V20.75V20H0.999998V20.75ZM18 13.75H18.75V0.750001H18H17.25V13.75H18ZM11 20.75L11.5303 21.2803L18.5303 14.2803L18 13.75L17.4697 13.2197L10.4697 20.2197L11 20.75ZM11 20.75H11.75V13.75H11H10.25V20.75H11ZM11 13.75V14.5H18V13.75V13H11V13.75ZM10 0.75V1.5L18 1.5V0.750001V1.49012e-06L10 0V0.75Z" fill="#FAFAFA"/>
<path d="M8 4.75L0 4.75M4 0.75V8.75" stroke="white" stroke-width="1.5" stroke-linejoin="round"/>
</svg>
